<?xml version="1.0" encoding="UTF-8" standalone="no"?>
<!-- Created with Inkscape (http://www.inkscape.org/) -->

<svg
   xmlns:osb="http://www.openswatchbook.org/uri/2009/osb"
   xmlns:dc="http://purl.org/dc/elements/1.1/"
   xmlns:cc="http://creativecommons.org/ns#"
   xmlns:rdf="http://www.w3.org/1999/02/22-rdf-syntax-ns#"
   xmlns:svg="http://www.w3.org/2000/svg"
   xmlns="http://www.w3.org/2000/svg"
   xmlns:xlink="http://www.w3.org/1999/xlink"
   xmlns:sodipodi="http://sodipodi.sourceforge.net/DTD/sodipodi-0.dtd"
   xmlns:inkscape="http://www.inkscape.org/namespaces/inkscape"
   version="1.1"
   id="svg866"
   width="199.59302mm"
   height="227.08861mm"
   viewBox="0 0 754.36731 858.28766"
   sodipodi:docname="tuxMascott.svg"
   inkscape:version="0.92.4 (5da689c313, 2019-01-14)"
   inkscape:export-filename="/home/panda/Pictures/Graphics/tuxMascott_tUxBgGray.png"
   inkscape:export-xdpi="96"
   inkscape:export-ydpi="96">
  <metadata
     id="metadata872">
    <rdf:RDF>
      <cc:Work
         rdf:about="">
        <dc:format>image/svg+xml</dc:format>
        <dc:type
           rdf:resource="http://purl.org/dc/dcmitype/StillImage" />
        <dc:title />
      </cc:Work>
    </rdf:RDF>
  </metadata>
  <defs
     id="defs870">
    <inkscape:path-effect
       effect="bspline"
       id="path-effect5373"
       is_visible="true"
       weight="33.333333"
       steps="2"
       helper_size="0"
       apply_no_weight="true"
       apply_with_weight="true"
       only_selected="false" />
    <inkscape:path-effect
       effect="bspline"
       id="path-effect5369"
       is_visible="true"
       weight="33.333333"
       steps="2"
       helper_size="0"
       apply_no_weight="true"
       apply_with_weight="true"
       only_selected="false" />
    <color-profile
       name="Apple-RGB"
       xlink:href="/usr/share/color/icc/colord/AppleRGB.icc"
       id="color-profile4592" />
    <linearGradient
       id="linearGradient2450"
       osb:paint="solid">
      <stop
         style="stop-color:#000000;stop-opacity:1;"
         offset="0"
         id="stop2448" />
    </linearGradient>
    <linearGradient
       id="linearGradient1010"
       osb:paint="solid">
      <stop
         style="stop-color:#ff6600;stop-opacity:1;"
         offset="0"
         id="stop1008" />
    </linearGradient>
  </defs>
  <sodipodi:namedview
     pagecolor="#eeeeee"
     bordercolor="#666666"
     borderopacity="1"
     objecttolerance="10"
     gridtolerance="10"
     guidetolerance="10"
     inkscape:pageopacity="1"
     inkscape:pageshadow="2"
     inkscape:window-width="1920"
     inkscape:window-height="983"
     id="namedview868"
     showgrid="false"
     inkscape:zoom="0.70910507"
     inkscape:cx="525.90493"
     inkscape:cy="532.35208"
     inkscape:window-x="0"
     inkscape:window-y="27"
     inkscape:window-maximized="1"
     inkscape:current-layer="layer1"
     units="mm"
     inkscape:pagecheckerboard="false" />
  <g
     inkscape:groupmode="layer"
     id="layer1"
     inkscape:label="Layer 1"
     transform="translate(-21.517593,926.29028)">
    <g
       id="g876"
       transform="matrix(1.0079365,0,0,1.0079365,5.5031048,0.249814)">
      <g
         id="g863">
        <g
           id="g910"
           transform="matrix(6.5120282,0,0,6.5120282,-9.277967,-842.18565)">
          <path
             inkscape:connector-curvature="0"
             id="path894"
             d="M 78.948514,113.58228 C 77.22899,112.536 75.25566,110.40201 74.563335,108.84009 l -1.258773,-2.83986 -11.364821,-0.0102 c -8.825426,-0.008 -11.364821,0.28854 -11.364821,1.32693 0,0.73544 -1.315385,2.65255 -2.923077,4.26024 -3.202072,3.20208 -7.076923,3.9174 -7.076923,1.30645 0,-1.19968 -0.580308,-1.45139 -2.25,-0.97593 -6.908366,1.96721 -7.678263,1.91144 -8.643025,-0.62607 -0.787109,-2.07026 -1.441619,-2.38587 -4.129628,-1.99135 -2.973548,0.43642 -3.144466,0.3044 -2.473466,-1.9106 1.057799,-3.49184 5.347679,-7.675331 9.161064,-8.933861 1.83428,-0.60536 3.335055,-1.33831 3.335055,-1.62876 0,-0.29045 -1.146509,-1.890637 -2.547798,-3.555974 C 28.167979,87.486342 25.54302,80.716367 24.10501,70.250279 23.296396,64.365045 21.985902,64.19537 14.786445,69.043767 11.892468,70.992686 9.085974,72.316128 8.549794,71.98475 5.598519,70.160712 9.540407,61.883613 15.848583,56.658846 25.265724,48.859067 25.498802,48.50291 27.029787,39.573282 30.896451,17.020564 43.718931,5.5951825 63.913005,6.7087456 81.297238,7.6673666 90.535721,16.892478 95.732377,38.482067 l 2.19649,9.12535 7.877553,7.101506 c 8.87086,7.996965 11.01866,11.337317 10.57528,16.447188 l -0.30678,3.535602 -4.5,-3.586036 c -2.97548,-2.371153 -5.5544,-3.589324 -7.61232,-3.595742 -3.0092,-0.0094 -3.13328,0.164241 -3.74498,5.240294 -1.027653,8.527645 -2.447643,12.265015 -7.019778,18.475822 l -4.323858,5.873548 4.353926,1.8008 c 4.663917,1.929011 8.34701,6.111791 8.34701,9.479451 0,1.80183 -0.32842,1.94601 -2.527883,1.10978 -2.18524,-0.83083 -2.68142,-0.62415 -3.66052,1.52475 -1.229773,2.69906 -3.149821,3.06815 -7.451946,1.43249 -2.350168,-0.89353 -3.004906,-0.74299 -4.3151,0.99219 -1.528284,2.024 -1.577478,2.02551 -4.670957,0.14322 z M 45.57492,106.39811 c 0,-2.91214 -13.942296,-6.418301 -15.5,-3.89788 -0.339919,0.55 0.338848,1 1.508371,1 1.700495,0 1.993806,0.41778 1.464388,2.08583 -0.58534,1.84424 -0.427026,1.96006 1.366871,1 3.079289,-1.64799 6.006783,-1.30462 7.360692,0.86333 0.90393,1.44742 1.549642,1.67331 2.508474,0.87755 0.710162,-0.58938 1.291204,-1.45735 1.291204,-1.92883 z m 37.636112,0.42098 c 2.073401,-1.35855 3.122053,-1.47116 5.464817,-0.58687 2.569848,0.97001 2.899071,0.87702 2.899071,-0.81885 0,-1.06609 0.690262,-1.91314 1.559017,-1.91314 0.857459,0 1.2809,-0.45 0.940983,-1 -1.03589,-1.67611 -7.348446,-1.11796 -11.539838,1.02032 -3.876077,1.97743 -4.635098,2.97141 -3.293495,4.31301 0.922301,0.92231 1.071904,0.88407 3.969445,-1.01447 z m -11.508245,-3.84676 c 6.295682,-2.14516 11.310322,-6.624461 14.333252,-12.803104 4.852452,-9.918054 4.417695,-18.738017 -1.373789,-27.87024 -3.495525,-5.51187 -7.182949,-8.220572 -9.981645,-7.3323 -1.095733,0.347772 -4.566131,2.63098 -7.711995,5.073796 l -5.719754,4.441484 -5.380247,-5.088414 c -4.59418,-4.344984 -5.775707,-4.990281 -8.086968,-4.416739 -3.632692,0.901456 -6.413222,3.649506 -9.580206,9.4683 -8.039476,14.771165 -1.013337,33.108996 14.873485,38.818977 4.430584,1.59242 13.515714,1.45012 18.627867,-0.29176 z M 114.67236,67.256516 c -0.95879,-2.521812 -7.77971,-8.889485 -15.927923,-14.869511 l -4.33048,-3.17817 0.33048,2.895697 c 0.27479,2.407735 1.30617,3.382136 6.120463,5.782355 3.28522,1.637886 7.61123,4.941635 10,7.636943 2.31551,2.612657 4.33511,4.63857 4.488,4.50203 0.15289,-0.13654 -0.15336,-1.382745 -0.68054,-2.769344 z M 23.162092,57.827238 c 4.307113,-1.756282 6.206056,-4.447326 5.221831,-7.4 -0.43666,-1.309981 -14.703137,9.656059 -17.200129,13.221014 -2.874123,4.103385 -1.707677,4.10892 2.94443,0.01397 2.504316,-2.204388 6.569557,-4.830132 9.033868,-5.834986 z m 43.684984,-1.399813 c 4.261396,-3.512602 4.711474,-5.430331 1.477844,-6.29691 -3.062432,-0.8207 -11.814769,-0.660368 -14.160554,0.259404 -1.747138,0.685046 -1.587502,1.1067 1.866362,4.929715 2.077304,2.299327 4.522024,4.180595 5.43271,4.180595 0.910687,0 3.333324,-1.382762 5.383638,-3.072804 z M 54.225325,46.993637 c 2.659097,-1.742307 4.731155,-6.056694 3.921794,-8.165857 -0.280186,-0.730153 -1.959561,-1.327551 -3.731944,-1.327551 -3.036324,0 -3.11036,0.08313 -1.281385,1.438882 1.812073,1.343217 1.830407,1.551294 0.275766,3.12965 -2.531631,2.570249 -6.512019,1.17682 -7.334429,-2.56759 -0.50325,-2.291283 -1.212184,-3.000942 -2.997875,-3.000942 -5.480879,0 -6.933301,2.790357 -4.106825,7.889929 2.823725,5.094608 9.669777,6.26299 15.254898,2.603479 z M 81.82492,44.546196 c 4.779554,-5.34879 2.820063,-8.140555 -5.625,-8.014164 -1.919811,0.02873 -1.965068,0.153462 -0.468695,1.291732 2.425599,1.845119 0.496078,4.676465 -3.186943,4.676465 -2.292686,0 -3.06795,-0.544623 -3.558718,-2.5 -0.693437,-2.762872 -3.14478,-3.356405 -4.05591,-0.98204 -0.858893,2.238239 1.646356,7.52821 4.054303,8.560883 3.941079,1.690172 9.872366,0.289276 12.840963,-3.032876 z"
             style="fill:#000000" />
          <path
             inkscape:connector-curvature="0"
             id="path900"
             d="m 60.972078,59.270908 c -1.3888,-0.541057 -5.904895,-4.789863 -7.250531,-6.821403 -0.678497,-1.024343 -0.683031,-1.385309 -0.0217,-1.727298 1.207123,-0.624228 2.705836,-0.822094 6.991444,-0.923041 8.363977,-0.197011 10.849481,0.761674 9.088702,3.50561 -0.969394,1.51067 -4.05855,4.104526 -6.348663,5.33075 -1.353634,0.724793 -1.880408,0.860892 -2.459256,0.635382 z"
             style="opacity:1;fill:#ff6600;fill-opacity:1;stroke:#000004;stroke-width:1.33626485;stroke-linecap:square;stroke-linejoin:miter;stroke-miterlimit:4;stroke-dasharray:none;stroke-dashoffset:0;stroke-opacity:1;paint-order:stroke fill markers" />
          <path
             inkscape:connector-curvature="0"
             id="path902"
             d="m 41.864168,107.44573 c -1.759744,-2.23923 -4.013072,-2.56424 -7.221589,-1.0416 -1.917221,0.90984 -2.012601,0.86466 -1.530361,-0.725 0.495944,-1.63484 0.238797,-2.18649 -1.02718,-2.20359 -0.953864,-0.0129 -1.976111,-0.36364 -1.976111,-0.67805 0,-0.13535 0.224909,-0.41377 0.499797,-0.61872 0.447361,-0.33354 0.725554,-0.37107 2.65165,-0.35777 3.124575,0.0216 7.064402,0.96968 9.829128,2.36531 2.493829,1.25888 2.900365,2.21303 1.545417,3.62713 -1.138907,1.18863 -1.595268,1.12807 -2.770751,-0.36771 z"
             style="opacity:1;fill:#ff6600;fill-opacity:1;stroke:#000004;stroke-width:1.33626485;stroke-linecap:square;stroke-linejoin:miter;stroke-miterlimit:4;stroke-dasharray:none;stroke-dashoffset:0;stroke-opacity:1;paint-order:stroke fill markers" />
          <path
             inkscape:connector-curvature="0"
             id="path904"
             d="m 79.394142,107.86074 c -0.655559,-0.71974 -0.758119,-1.07162 -0.479825,-1.64623 0.508647,-1.05024 4.100172,-3.03396 6.986795,-3.85904 3.081292,-0.88072 6.515129,-0.96916 7.691913,-0.1981 0.793231,0.51974 0.366532,1.32815 -0.701035,1.32815 -0.634661,0 -1.352537,0.91994 -1.355575,1.73713 -0.0033,0.88925 -0.160624,1.40175 -0.46629,1.51904 -0.141397,0.0543 -1.115603,-0.17888 -2.1649,-0.5181 -2.932664,-0.94806 -3.400013,-0.88065 -6.367203,0.91844 -1.992633,1.20819 -2.576485,1.34166 -3.14388,0.71871 z"
             style="opacity:1;fill:#ff6600;fill-opacity:1;stroke:#000004;stroke-width:1.33626485;stroke-linecap:square;stroke-linejoin:miter;stroke-miterlimit:4;stroke-dasharray:none;stroke-dashoffset:0;stroke-opacity:1;paint-order:stroke fill markers" />
        </g>
      </g>
      <path
         inkscape:connector-curvature="0"
         id="path3230"
         d="m 364.91322,-164.37757 c -38.05755,-4.39741 -76.58602,-25.97367 -103.53218,-57.97889 -11.77886,-13.99031 -16.48133,-21.07784 -24.0233,-36.20776 -13.13515,-26.35037 -18.47394,-49.19521 -18.47394,-79.05065 0,-31.40049 5.91784,-54.8376 21.17648,-83.86771 10.52946,-20.03268 17.75801,-30.36911 29.47941,-42.15392 12.77181,-12.84091 24.54412,-19.07219 37.84811,-20.03365 8.30877,-0.60047 10.2038,-0.24462 15.55635,2.92115 8.18081,4.83855 17.46186,12.87587 43.90409,38.02066 14.14319,13.44921 22.8742,20.77673 23.95807,20.10687 0.93793,-0.57968 12.24348,-9.22711 25.12343,-19.2165 23.65919,-18.34952 45.58525,-33.70682 55.92406,-39.16994 13.802,-7.29309 28.67905,-2.19533 46.68999,15.99877 24.01762,24.26186 44.44482,63.3416 50.9022,97.38212 9.65672,50.90611 -11.20737,115.89403 -49.93048,155.5245 -24.6704,25.24849 -52.77334,39.98038 -87.15732,45.6889 -15.69678,2.60601 -52.81455,3.72653 -67.44497,2.03605 z"
         style="opacity:1;fill:#ffffff;fill-opacity:1;stroke:none;stroke-width:1.06901181;stroke-linecap:square;stroke-linejoin:miter;stroke-miterlimit:4;stroke-dasharray:none;stroke-dashoffset:0;stroke-opacity:1;paint-order:stroke fill markers" />
      <path
         inkscape:connector-curvature="0"
         id="path3232"
         d="m 53.974635,-410.26541 c 0,-3.82459 15.459629,-23.80108 26.609098,-34.38352 28.545737,-27.094 84.976587,-68.93373 93.088117,-69.01866 2.57521,-0.027 3.57531,9.10735 1.77845,16.24334 -2.94361,11.69014 -12.42975,20.22059 -35.24207,31.69159 -22.42602,11.27675 -39.65403,22.45768 -57.54447,37.34619 -20.812478,17.32025 -28.689125,22.29542 -28.689125,18.12106 z"
         style="opacity:1;fill:#ffffff;fill-opacity:1;stroke:none;stroke-width:1.06901181;stroke-linecap:square;stroke-linejoin:miter;stroke-miterlimit:4;stroke-dasharray:none;stroke-dashoffset:0;stroke-opacity:1;paint-order:stroke fill markers" />
      <path
         inkscape:connector-curvature="0"
         id="path3234"
         d="m 278.83459,-526.23544 c -10.1916,-3.27491 -17.61606,-8.11019 -25.60286,-16.67423 -13.75259,-14.74655 -20.76954,-39.05752 -14.25179,-49.37682 6.41186,-10.15165 32.91408,-15.36635 43.34851,-8.52945 2.40572,1.57629 4.52971,5.81007 7.33604,14.62303 3.16807,9.94901 5.12168,13.57662 9.86952,18.32648 13.07034,13.07588 32.95803,10.78974 44.26417,-5.08827 4.16403,-5.84783 2.96603,-8.83109 -6.37994,-15.88736 -4.21957,-3.18581 -7.67196,-6.35232 -7.67196,-7.03669 0,-2.17714 23.08756,-1.39771 30.17983,1.01887 8.20309,2.79508 9.89236,5.78019 9.14193,16.15478 -1.68716,23.32481 -23.05635,45.67822 -50.69959,53.0347 -10.59646,2.81995 -29.8563,2.54468 -39.53386,-0.56504 z"
         style="opacity:1;fill:#ffffff;fill-opacity:1;stroke:none;stroke-width:1.06901181;stroke-linecap:square;stroke-linejoin:miter;stroke-miterlimit:4;stroke-dasharray:none;stroke-dashoffset:0;stroke-opacity:1;paint-order:stroke fill markers" />
      <path
         inkscape:connector-curvature="0"
         id="path3236"
         d="m 452.97091,-529.36486 c -4.17457,-0.72299 -9.71777,-2.32416 -12.31823,-3.55816 -16.83819,-7.99025 -32.59873,-43.10466 -25.50437,-56.82363 6.49003,-12.55034 18.75905,-8.38464 24.15236,8.20043 3.07227,9.44761 6.7182,13.68031 13.37718,15.53013 17.77003,4.93638 38.28878,-4.59275 38.28878,-17.78173 0,-3.94032 -1.32975,-6.38273 -6.4626,-11.87016 l -6.46259,-6.90904 6.10904,-0.90662 c 9.29312,-1.37917 34.17625,1.64176 42.29647,5.13498 8.88555,3.82246 12.60294,8.42548 12.60294,15.60547 0,11.36731 -13.76448,30.93702 -28.61109,40.67795 -15.80643,10.37066 -40.02082,15.72203 -57.46789,12.70038 z"
         style="opacity:1;fill:#ffffff;fill-opacity:1;stroke:none;stroke-width:1.06901181;stroke-linecap:square;stroke-linejoin:miter;stroke-miterlimit:4;stroke-dasharray:none;stroke-dashoffset:0;stroke-opacity:1;paint-order:stroke fill markers" />
      <path
         inkscape:connector-curvature="0"
         id="path3238"
         d="m 727.03523,-401.60672 c -34.45344,-35.71778 -51.00961,-49.03586 -80.4328,-64.70158 -31.87978,-16.97367 -36.96627,-22.43915 -38.87079,-41.767 -0.54873,-5.56875 -0.7402,-10.3825 -0.42548,-10.69722 0.85504,-0.85504 44.42351,31.84901 66.12499,49.63579 23.13453,18.96132 53.20512,48.38312 59.26139,57.98276 4.21057,6.67409 9.56083,21.42077 8.248,22.7336 -0.33195,0.33195 -6.58934,-5.6019 -13.90531,-13.18635 z"
         style="opacity:1;fill:#ffffff;fill-opacity:1;stroke:none;stroke-width:1.06901181;stroke-linecap:square;stroke-linejoin:miter;stroke-miterlimit:4;stroke-dasharray:none;stroke-dashoffset:0;stroke-opacity:1;paint-order:stroke fill markers" />
    </g>
    <g
       id="g2810"
       style="fill:#96ff00;fill-opacity:1"
       transform="matrix(6.5033763,-0.53403634,0.53403634,6.5033763,779.69013,-1101.4062)">
      <ellipse
         transform="matrix(0.95951397,0.28166103,-0.50801142,0.86135033,0,0)"
         ry="15.825863"
         rx="22.283636"
         cy="59.541977"
         cx="-30.661327"
         id="path2638"
         style="opacity:1;fill:#96ff00;fill-opacity:1;stroke:#000000;stroke-width:0.38383901;stroke-linecap:square;stroke-linejoin:miter;stroke-miterlimit:4;stroke-dasharray:none;stroke-dashoffset:0;stroke-opacity:1;paint-order:stroke fill markers" />
      <rect
         transform="rotate(11.850947)"
         y="60.733521"
         x="-68.426193"
         height="13.476562"
         width="7.7148438"
         id="rect2643"
         style="opacity:1;fill:#96ff00;fill-opacity:1;stroke:none;stroke-width:3.26671219;stroke-linecap:square;stroke-linejoin:miter;stroke-miterlimit:4;stroke-dasharray:none;stroke-dashoffset:0;stroke-opacity:1;paint-order:stroke fill markers" />
      <rect
         transform="matrix(0.97844408,0.20651194,-0.15041603,0.98862279,0,0)"
         y="59.273289"
         x="-37.377731"
         height="15.444529"
         width="7.76789"
         id="rect2643-3"
         style="opacity:1;fill:#96ff00;fill-opacity:1;stroke:none;stroke-width:3.50910687;stroke-linecap:square;stroke-linejoin:miter;stroke-miterlimit:4;stroke-dasharray:none;stroke-dashoffset:0;stroke-opacity:1;paint-order:stroke fill markers" />
      <path
         inkscape:connector-curvature="0"
         id="path1006"
         d="m -101.91102,70.286897 c -3.60402,-0.76157 -7.00419,-2.62361 -10.62683,-5.81958 -1.74745,-1.54163 -4.27983,-4.35597 -4.07662,-4.530525 0.1219,-0.104743 4.0298,-0.54583 14.99461,-1.692553 l 6.347072,-0.663787 4.144165,0.918026 c 2.279288,0.504925 5.295647,1.186519 6.70301,1.514657 1.407351,0.328142 4.132521,0.944192 6.055909,1.369002 4.548445,1.00458 8.549193,1.94543 8.634275,2.03051 0.110056,0.11006 -5.911951,2.22265 -9.316624,3.26849 -5.409636,1.6617 -9.82221,2.72029 -14.310466,3.43309 -2.339949,0.37162 -7.147471,0.46873 -8.548501,0.17267 z m 68.832773,-0.96143 c -1.219713,-0.26985 -4.021639,-0.88727 -6.226509,-1.37205 -2.20487,-0.48478 -4.037686,-0.90638 -4.072935,-0.93688 -0.03519,-0.0305 0.135469,-1.08806 0.379376,-2.35012 1.062303,-5.496914 1.482147,-10.845522 1.280527,-16.313563 -0.279723,-7.586519 -2.308019,-13.474084 -5.798128,-16.830354 -0.503448,-0.484142 -1.14566,-1.073321 -1.42713,-1.309305 l -0.511774,-0.429042 2.388258,0.57123 c 3.959159,0.946969 6.164608,1.87574 9.071902,3.820396 1.812871,1.212615 4.375153,3.664711 5.72313,5.477027 2.966668,3.988609 4.626771,8.721173 4.853757,13.836904 0.135008,3.042621 0.108993,3.131729 -1.012141,3.460611 -2.295218,0.673327 -4.533235,2.645261 -5.741103,5.058506 -0.384134,0.76747 -0.698421,1.52755 -0.698421,1.68909 0,0.23635 0.539465,0.43331 2.762804,1.00872 1.519533,0.39326 2.79438,0.74661 2.832994,0.78522 0.03862,0.0386 -0.141691,1.03434 -0.400666,2.21273 -0.423245,1.92589 -0.507027,2.14095 -0.828564,2.12701 -0.196743,-0.008 -1.355665,-0.23629 -2.575377,-0.50613 z m -13.64714,-2.98584 c -0.562941,-0.12988 -3.288111,-0.73149 -6.055922,-1.33691 -2.76781,-0.60541 -7.680775,-1.68058 -10.917719,-2.38926 -3.23692,-0.7087 -7.789037,-1.70335 -10.115796,-2.21038 -2.32677,-0.507013 -4.277354,-0.968707 -4.334637,-1.026002 -0.303482,-0.303482 2.272474,-8.885054 3.807075,-12.682931 3.977534,-9.843701 8.850349,-15.51028 14.584592,-16.960343 1.783857,-0.451101 4.618599,-0.377628 6.131744,0.15892 3.454092,1.224779 5.695876,3.270787 7.423064,6.774771 1.984096,4.025228 2.764032,8.740103 2.582002,15.608918 -0.14671,5.53555 -1.305159,14.357447 -1.879731,14.314437 -0.110647,-0.008 -0.661732,-0.12133 -1.224672,-0.25122 z m -35.482567,-7.763696 c -0.750592,-0.174378 -3.514139,-0.787859 -6.141215,-1.36327 -2.627076,-0.575422 -4.793698,-1.062268 -4.814717,-1.081882 -0.115016,-0.10734 2.420188,-11.358653 2.86731,-12.725017 1.172147,-3.582003 2.957871,-6.534961 5.607831,-9.273404 6.238837,-6.447142 14.77347,-8.92603 23.633856,-6.864481 l 1.705897,0.39691 -0.767655,0.199696 c -3.222525,0.838306 -5.391072,2.171004 -8.117954,4.98899 -4.968418,5.1344 -9.131346,14.214354 -11.740072,25.606793 -0.127851,0.558347 -0.291448,0.566825 -2.233281,0.115606 z m 27.765775,-30.181276 c -1.148034,-0.247993 -2.131291,-0.494841 -2.184997,-0.548558 -0.192457,-0.192457 0.396723,-1.26495 0.862585,-1.570191 0.854814,-0.560095 3.05228,-0.07404 3.507054,0.775708 0.226111,0.422488 0.256672,1.492538 0.04771,1.670471 -0.07971,0.0679 -1.084303,-0.07947 -2.232349,-0.32743 z"
         style="opacity:1;fill:#96ff00;fill-opacity:1;stroke:#000000;stroke-width:0.17058925;stroke-opacity:1" />
      <rect
         transform="matrix(0.97867202,0.20542901,-0.25269631,0.96754564,0,0)"
         y="74.147255"
         x="-62.930862"
         height="0.1718868"
         width="2.2186103"
         id="rect2787"
         style="opacity:1;fill:#96ff00;fill-opacity:1;stroke:none;stroke-width:0.67181039;stroke-linecap:square;stroke-linejoin:miter;stroke-miterlimit:4;stroke-dasharray:none;stroke-dashoffset:0;stroke-opacity:1;paint-order:stroke fill markers" />
      <rect
         transform="matrix(0.9798117,0.19992256,-0.24725168,0.96895129,0,0)"
         y="74.335358"
         x="-27.668657"
         height="0.1718868"
         width="2.2186103"
         id="rect2787-6"
         style="opacity:1;fill:#96ff00;fill-opacity:1;stroke:none;stroke-width:0.67181039;stroke-linecap:square;stroke-linejoin:miter;stroke-miterlimit:4;stroke-dasharray:none;stroke-dashoffset:0;stroke-opacity:1;paint-order:stroke fill markers" />
    </g>
    <g
       id="g5365"
       transform="matrix(1.1108506,0,0,1.1108506,44.990972,122.2746)">
      <path
         inkscape:connector-curvature="0"
         id="path5333"
         d="m 842.50325,-534.93234 c -5.42271,-0.82388 -9.73663,-6.53254 -12.73775,-16.85602 -2.83491,-9.75178 -2.32231,-36.0486 1.56766,-80.42099 3.71239,-42.34682 6.22558,-50.97085 18.19634,-62.44086 6.25554,-5.99387 6.93751,-7.32574 6.93751,-13.54892 0,-9.39035 3.83649,-28.9057 8.48073,-43.13954 26.22158,-80.36483 99.63584,-136.95863 184.37956,-142.13513 77.8913,-4.7578 156.3605,41.5757 192.627,113.74002 10.7685,21.42765 20.0488,54.25488 20.0488,70.91933 0,5.44415 0.8931,7.15189 6.6676,12.74809 12.0815,11.7084 14.6277,20.5269 18.4383,63.85701 3.9087,44.44763 4.4291,70.67422 1.5956,80.42099 -3.8066,13.09387 -6.6906,15.84 -16.9178,16.10909 -4.7189,0.12408 -10.7232,-0.67292 -13.343,-1.77126 -2.6198,-1.09835 -18.382,-11.13838 -35.0272,-22.31118 -32.5946,-21.87866 -53.2282,-32.87256 -77.2659,-41.16837 -33.3027,-11.49338 -73.2661,-16.49234 -107.0738,-13.3937 -52.75641,4.83539 -87.27859,18.11075 -142.16177,54.6677 -38.50985,25.65089 -40.96544,26.76667 -54.41188,24.72374 z m 8.51762,-23.51604 c 2.56213,-8.84137 4.52308,-21.67268 6.13066,-40.11573 3.50415,-40.20098 7.31076,-50.69062 22.4435,-61.84613 26.45742,-19.5038 74.43409,-35.27792 128.40467,-42.21779 26.4876,-3.40594 77.1689,-4.49921 107.7987,-2.32538 65.0647,4.6177 106.3632,17.09074 136.8132,41.32052 8.8068,7.00783 9.5269,7.33023 7.4269,3.32508 -7.2874,-13.89787 -35.8951,-31.64283 -66.8484,-41.46502 -44.0106,-13.96557 -131.7445,-19.22709 -189.9433,-11.39112 -57.50364,7.7424 -110.31034,25.83084 -132.77212,45.47985 -13.19634,11.54384 -17.14439,26.66895 -20.00714,76.64811 -1.4444,25.21692 -2.87614,37.66176 -5.4473,47.3485 -0.66242,2.49567 -0.53702,2.60657 0.71515,0.6324 0.83515,-1.3167 3.21362,-8.24368 5.28548,-15.39329 z m 416.91273,-22.31237 c -3.2016,-20.39029 -6.6341,-40.47795 -7.6277,-44.63923 -2.0224,-8.47018 -5.4793,-17.40173 -6.7351,-17.40173 -0.4541,0 -0.4156,0.66328 0.085,1.47394 0.501,0.81066 3.9108,19.48097 7.5771,41.48956 5.8835,35.31655 10.7492,58.12765 12.0818,56.64122 0.242,-0.26977 -2.1797,-17.17347 -5.3815,-37.56376 z"
         style="fill:#445500;stroke-width:1.51319432" />
      <path
         transform="translate(21.517593,-926.29028)"
         inkscape:connector-curvature="0"
         id="path5335"
         d="m 824.97935,379.70363 c -0.0501,-0.29158 0.51498,-4.65651 1.25572,-9.69985 0.74074,-5.04335 1.99734,-18.93885 2.79243,-30.8789 3.04815,-45.77473 5.67004,-60.5371 12.73576,-71.70811 12.68259,-20.05134 64.47319,-41.40729 125.09321,-51.58241 26.76841,-4.4931 39.88613,-5.43961 76.04743,-5.4872 49.8452,-0.0656 85.863,3.56266 119.6314,12.05112 22.5081,5.6579 47.7186,17.75115 63.9609,30.68142 4.7278,3.76379 12.2522,12.40318 12.2522,14.06782 0,0.4601 -4.0716,-2.19365 -9.048,-5.89722 -29.8284,-22.19903 -62.815,-32.93595 -119.8214,-39.00103 -30.0646,-3.19867 -93.5437,-2.68203 -122.40281,0.9962 -57.99159,7.39131 -112.16912,26.11562 -133.97347,46.3026 -11.73425,10.86385 -14.22013,18.97893 -18.48353,60.33886 -2.20072,21.34956 -4.30749,33.29687 -7.65636,43.41836 -1.26082,3.81066 -2.33339,6.6899 -2.38348,6.39834 z"
         style="opacity:1;fill:#008000;fill-opacity:1;stroke:none;stroke-width:0.69830173;stroke-linecap:square;stroke-linejoin:miter;stroke-miterlimit:4;stroke-dasharray:none;stroke-dashoffset:0;stroke-opacity:1;paint-order:stroke fill markers" />
      <path
         transform="translate(21.517593,-926.29028)"
         inkscape:connector-curvature="0"
         id="path5337"
         d="m 1249.8292,378.30919 c 0,-0.46575 -1.0533,-5.78705 -2.3349,-11.82512 -3.2359,-15.24485 -14.3967,-79.29157 -13.9034,-79.78485 0.2219,-0.22197 1.4378,2.87045 2.7019,6.87206 3.301,10.44937 15.4285,83.69738 14.0808,85.04511 -0.2968,0.29678 -0.5418,0.15854 -0.5444,-0.3072 z"
         style="opacity:1;fill:#008000;fill-opacity:1;stroke:none;stroke-width:0.69830173;stroke-linecap:square;stroke-linejoin:miter;stroke-miterlimit:4;stroke-dasharray:none;stroke-dashoffset:0;stroke-opacity:1;paint-order:stroke fill markers" />
      <path
         inkscape:connector-curvature="0"
         d="m 930.51765,-701.54492 c 1.14887,4.43258 2.85202,8.71201 4.40289,13.01698 1.60836,4.75293 3.953,9.2005 5.73054,13.88468 0,0 -22.60383,12.35588 -22.60383,12.35588 v 0 c -1.06843,-4.89101 -2.86311,-9.57939 -4.78225,-14.19302 -1.67784,-4.15861 -3.44473,-8.28889 -5.74251,-12.14975 0,0 22.99516,-12.91477 22.99516,-12.91477 z"
         id="path5341"
         style="opacity:1;fill:#445500;fill-opacity:1;stroke:none;stroke-width:0.75590551;stroke-linecap:square;stroke-linejoin:miter;stroke-miterlimit:4;stroke-dasharray:none;stroke-dashoffset:0;stroke-opacity:1;paint-order:stroke fill markers" />
      <path
         inkscape:connector-curvature="0"
         d="m 940.64773,-712.20815 c 0.81308,4.4416 2.58386,8.60558 4.38084,12.71914 1.27494,2.57569 2.54392,5.15057 3.73366,7.76672 0.50756,1.12037 1.41021,1.97405 2.21799,2.87673 0.43564,0.55771 0.98621,0.94247 1.58588,1.29602 0,0 -22.15773,14.05147 -22.15773,14.05147 v 0 c -0.63483,-0.53912 -1.25071,-1.09564 -1.82593,-1.69929 -1.11151,-1.10828 -2.04627,-2.36553 -2.72373,-3.78886 -0.86699,-2.74972 -1.54536,-5.56512 -2.80143,-8.18472 -0.97936,-2.43067 -1.98939,-4.84097 -3.03232,-7.24494 -0.58118,-1.33962 -1.05924,-2.56242 -1.74054,-3.84497 -0.18929,-0.35635 -0.42124,-0.68836 -0.63186,-1.03253 0,0 22.99517,-12.91477 22.99517,-12.91477 z"
         id="path5343"
         style="opacity:1;fill:#445500;fill-opacity:1;stroke:none;stroke-width:0.75590551;stroke-linecap:square;stroke-linejoin:miter;stroke-miterlimit:4;stroke-dasharray:none;stroke-dashoffset:0;stroke-opacity:1;paint-order:stroke fill markers" />
      <path
         inkscape:connector-curvature="0"
         d="m 953.46062,-705.94657 c 2.97129,0.23429 5.95899,0.24221 8.93833,0.23028 3.97479,0.0178 7.95214,-0.10635 11.91846,-0.37893 3.61428,-0.33059 7.26413,-0.62406 10.83179,-1.31739 2.23464,-0.66334 4.55256,-0.99721 6.85373,-1.34705 2.28229,-0.28104 4.55488,-0.5513 6.85683,-0.62556 2.52314,-0.13024 5.05854,0.0185 7.53134,-0.55573 2.1385,-0.39723 4.3209,-0.57734 6.4911,-0.72533 1.6947,-0.10079 3.3912,-0.0123 5.0882,-0.0242 1.5826,0.0138 2.9254,0.0436 4.4615,-0.37528 2.4052,-0.1792 4.6792,-0.88935 6.9758,-1.56626 2.6831,-0.91094 5.3503,-1.84593 7.9592,-2.95522 2.4898,-0.86687 5.088,-1.23256 7.585,-2.07806 3.038,-1.16518 6.0673,-2.33816 9.1601,-3.3527 3.5644,-0.97915 7.0175,-2.29399 10.5287,-3.43478 1.0655,-0.20696 2.7243,-0.85084 3.8267,-0.69254 0.7514,0.1079 1.721,0.6159 2.3693,0.90864 4.4573,1.99924 9.1363,3.42106 13.7354,5.04876 3.5383,1.09915 7.0007,2.46913 10.5942,3.38702 2.225,0.56833 2.7757,0.60908 5.0642,0.99051 5.2887,0.70261 10.6338,0.69973 15.9583,0.68821 4.6332,0.0628 9.2632,-0.0366 13.8924,-0.20882 4.415,-0.19555 8.8332,-0.29629 13.2503,-0.4313 2.3416,-0.10772 4.6854,-0.39788 7.0315,-0.4104 1.4308,-0.008 2.3032,0.1017 3.7312,0.22562 2.8273,0.2781 5.6614,0.44473 8.5008,0.51467 1.6855,-0.004 3.3625,-0.0429 5.0326,0.19847 2.6783,0.44176 5.3459,0.94339 8.0445,1.25098 0.5166,-0.1536 1.0699,0.24564 1.5909,0.13683 0.096,-0.0201 0.2635,-0.28779 0.1818,-0.23275 -7.3616,4.96292 -14.6221,10.07639 -22.0338,14.9644 -0.1616,0.10661 -1.8867,-0.43074 -1.9086,-0.43679 -4.5913,-1.21201 -9.2301,-2.13774 -13.9143,-2.90051 -5.1292,-1.12977 -10.2662,-2.14263 -15.4903,-2.70487 -4.5065,-0.35111 -8.9853,-0.97463 -13.4802,-1.44861 -4.6477,-0.46924 -9.3225,-0.56982 -13.9905,-0.59632 -4.6096,0.0568 -9.022,-1.13922 -13.3903,-2.46303 -2.5783,-0.90952 -5.1576,-1.83127 -7.597,-3.07781 -1.2432,-0.63527 -2.4575,-1.32581 -3.696,-1.97008 -3.5232,-1.80446 -7.2406,-3.19284 -11.108,-4.02832 -0.5811,-0.0896 -1.1655,-0.16 -1.7434,-0.26874 -4.0036,-0.75337 0.5093,-0.0358 -3.3745,-0.70075 -1.6554,-0.28341 -3.3145,-0.43048 -4.9874,-0.55764 -1.5245,-0.10377 -3.0529,-0.12669 -4.5803,-0.11846 -0.9776,0.005 -1.8746,-0.0334 -2.8105,0.2491 7.4691,-4.10356 15.0411,-8.02518 22.4073,-12.3107 0.7753,-0.45106 -0.6997,-0.53006 -0.6858,-0.34394 0.015,0.19747 0.1229,0.37961 0.2224,0.55087 0.4724,0.81399 0.804,1.04994 1.4944,1.75547 3.6433,3.25269 8.276,4.67316 12.8365,6.1036 4.5513,1.29087 9.1891,2.31193 13.8768,2.9596 10.5064,1.23961 -0.6007,2.57683 -20.3788,15.28085 -0.2812,0.18061 -0.6432,-0.1858 -0.9718,-0.24645 -1.4389,-0.26553 -2.6683,-0.34408 -4.1472,-0.48634 -6.9994,-0.73927 -14.0451,-0.91475 -21.0777,-1.04185 -5.6701,-0.0881 -11.3377,0.0567 -17.004,0.24149 -0.5081,0.0191 -1.0243,-0.0349 -1.5244,0.0572 -0.3144,0.0579 -0.5855,0.25696 -0.8782,0.38544 7.3985,-4.62385 14.8698,-9.13313 22.1954,-13.87154 0.1731,-0.11199 -0.036,-0.60757 0.1697,-0.59484 0.6705,0.0415 1.2471,0.5016 1.8818,0.72174 0.9199,0.31907 1.8536,0.59687 2.7805,0.8953 7.6814,2.16039 15.2732,4.61772 22.7961,7.27412 4.7413,1.66989 9.4265,3.49679 13.8837,5.8308 6.7947,7.33721 2.1593,1.7844 -21.3305,16.02629 -0.5325,0.32284 -1.1148,-0.56288 -1.7021,-0.77 -0.8466,-0.29862 -1.7221,-0.50877 -2.5886,-0.74336 -0.5657,-0.15314 -7.9208,-2.04542 -8.0473,-2.07801 -9.2957,-2.48359 -18.6948,-4.52423 -28.0771,-6.64286 -2.8165,-0.61812 -5.6442,-1.19038 -8.4925,-1.64317 -0.566,-0.09 -1.1353,-0.15828 -1.7015,-0.24715 -0.3479,-0.0546 -0.7875,0.0616 -1.0407,-0.18327 -0.5541,-0.53608 -0.7971,-1.32006 -1.1956,-1.9801 7.8631,-4.46367 15.4916,-9.36835 23.5892,-13.391 0.7002,-0.34783 1.5143,0.39475 2.2827,0.53849 1.0947,0.20474 2.1998,0.34919 3.3023,0.50616 2.6576,0.37839 5.7827,0.73639 8.421,1.15404 1.5385,0.24356 3.0685,0.53839 4.6027,0.80758 6.9136,1.38287 13.8145,2.82522 20.8143,3.70216 0.3883,-0.0279 1.4967,-0.28777 1.1651,-0.0837 -7.3992,4.55388 -15.0504,8.68791 -22.4756,13.19933 -0.1542,0.0937 0.055,0.57896 -0.1182,0.52839 -0.8512,-0.24848 -1.5347,-0.8973 -2.3488,-1.24859 -3.1667,-1.36648 -5.2581,-1.82285 -8.6524,-2.78439 -11.3019,-2.86632 -22.9132,-4.04304 -34.5202,-4.76064 -7.7035,-0.42345 -15.41967,0.0208 -23.1211,0.30056 -5.14814,0.0514 -10.32686,0.72951 -15.47423,0.26417 -0.846,-0.0765 -1.68367,-0.22695 -2.52551,-0.34043 -2.18445,-0.38264 -4.29781,-1.04013 -6.3966,-1.73851 -0.15232,-0.0507 -2.45762,-0.79288 -2.76676,-1.00615 -0.32316,-0.22295 -0.52225,-0.58634 -0.78338,-0.87951 7.63129,-4.79667 15.01391,-10.01384 22.89388,-14.39001 0.59937,-0.33286 1.30794,0.41475 1.97335,0.57992 1.02377,0.25412 2.05801,0.46464 3.09122,0.6772 5.35935,1.10255 10.74083,1.85592 16.16263,2.57865 12.1694,1.28335 24.353,2.43194 36.5476,3.44748 3.2195,0.24676 6.4424,0.45733 9.6707,0.54098 0.4844,0.0126 1.832,-0.28257 1.4534,0.0198 -20.7281,16.55956 -13.0974,18.97277 -22.9786,15.11828 -10.9129,-0.97229 -21.8834,-0.49534 -32.81038,-0.0723 -13.06813,0.41016 -26.13955,0.71049 -39.20762,1.12055 -6.17633,0.25868 -12.35045,0.0682 -18.52334,-0.15319 -0.70821,-0.20021 -1.47049,0.0809 -2.18455,-0.0634 -0.22835,-0.0461 -0.82364,-0.14925 -0.63668,-0.28825 7.2205,-5.36846 14.46845,-10.71989 22.02062,-15.61077 0.50288,-0.32567 1.18938,0.15039 1.78701,0.19267 0.94559,0.0669 1.89377,0.0898 2.84066,0.13473 8.14698,0.63286 16.22561,1.84524 24.19268,3.64883 1.95833,0.53643 3.97556,0.87617 5.92358,1.45407 0.30655,0.0909 0.70383,0.0761 0.90171,0.32731 0.53518,0.6793 1.89832,1.83403 1.17747,2.31178 -7.50985,4.97725 -15.90052,8.47684 -23.85078,12.71525 -6.58471,-1.76035 -13.42885,-2.24247 -20.19867,-2.77571 -6.48428,-0.4223 -12.98696,-0.42453 -19.47893,-0.21955 -0.45365,7.9e-4 -0.91251,0.0709 -1.36095,0.002 -0.24905,-0.0381 -0.89225,-0.16948 -0.68687,-0.3154 7.34057,-5.21525 14.70779,-10.41721 22.39455,-15.10724 0.51551,-0.31454 1.17966,0.26192 1.77553,0.36001 3.42189,0.56328 3.83129,0.51624 7.59451,0.84198 10.93861,0.55491 21.86869,1.22201 32.77458,2.23895 5.62717,0.44343 11.21737,1.29522 16.84387,1.74227 2.1838,0.17351 3.9941,0.20631 6.1777,0.27621 4.6458,0.12749 9.2903,-0.0335 13.9292,-0.27364 0,0 -20.8737,15.20314 -20.8737,15.20314 v 0 c -4.4184,-0.14528 -8.8384,-0.23132 -13.2557,-0.40367 -2.71704,-0.17905 -3.41495,-0.18121 -6.1346,-0.53938 -5.28916,-0.69657 -10.50266,-1.9215 -15.82638,-2.3816 -3.76346,-0.38373 -7.05664,-0.74874 -10.83649,-1.01428 -7.40296,-0.52006 -14.83079,-0.6487 -22.24667,-0.85335 -3.40111,-0.0303 -5.49701,-0.10652 -8.81303,0.0628 -0.75343,0.0385 -2.8427,0.68263 -2.25331,0.21173 6.6934,-5.34768 13.93849,-9.96684 20.83143,-15.05472 0.0781,-0.0576 -0.17395,-0.086 -0.26093,-0.12895 0.30013,0.0523 0.60026,0.10466 0.90039,0.157 6.15279,0.4016 12.3086,0.75465 18.46288,1.13229 5.35848,0.3646 3.15004,0.17085 8.32326,0.68811 3.72549,0.3725 7.45524,0.82687 11.20272,0.90958 0.6992,0.0154 1.39844,-0.0292 2.09766,-0.0437 -7.24665,4.24545 -14.94908,7.79451 -21.73996,12.73635 -0.67213,0.48912 1.05107,1.29561 1.47617,2.00996 0.0922,0.15491 -0.29286,-0.21324 -0.45448,-0.29307 -0.37002,-0.18278 -0.75385,-0.3365 -1.13591,-0.49255 -1.70391,-0.69593 -1.94905,-0.74695 -3.84208,-1.39966 -7.7127,-2.30434 -15.7232,-3.55986 -23.79299,-3.03614 -1.08698,0.12503 -2.18427,0.18034 -3.26095,0.37508 -0.71922,0.13008 -2.6838,1.04908 -2.11001,0.59635 17.86285,-14.09441 12.57338,-16.5829 22.54294,-14.9836 5.52086,0.75104 11.07722,1.12607 16.64912,1.22382 12.78266,0.15855 25.56982,0.003 38.34182,-0.56793 11.7843,-0.4412 23.5725,-0.9179 35.3413,-1.65838 9.7071,-3.59639 5.3095,-2.16367 -18.9358,14.91576 -0.2732,0.19243 -0.6325,-0.21954 -0.958,-0.29514 -1.3436,-0.31205 -3.5747,-0.64638 -4.82,-0.8417 -1.2209,-0.19151 -2.443,-0.37571 -3.6645,-0.56356 -11.8521,-1.73446 -23.7502,-3.06135 -35.68803,-4.05736 -5.88358,-0.55859 -11.76806,-1.16014 -17.66534,-1.56067 -1.20637,-0.0819 -2.41313,-0.18932 -3.62227,-0.1938 -9.58862,-0.0356 -16.24123,9.58634 18.74576,-14.11355 -0.15044,-0.0947 -0.61137,-0.36132 -0.45132,-0.28399 0.27675,0.1337 0.52369,0.32482 0.8027,0.45375 1.60956,0.74375 3.35656,1.28282 5.08321,1.66684 0.70892,0.15767 1.42784,0.26641 2.14176,0.39961 5.71636,0.53859 11.45243,0.36534 17.18543,0.20512 7.578,-0.25483 15.1814,-0.75073 22.725,0.34729 11.5873,1.30884 23.1599,2.92809 34.605,5.16704 4.3222,0.97173 5.6839,1.23575 9.8351,2.32077 1.1482,0.30012 2.3639,0.43257 3.4303,0.95352 0.8233,0.40222 2.8452,1.20193 2.1152,1.75568 -19.8769,15.07659 -14.4982,17.04552 -23.3571,13.3619 -6.3691,-1.8927 -12.8911,-3.31126 -19.4122,-4.55647 -4.4862,-0.64431 -8.9415,-1.21104 -13.4728,-1.42904 -1.2453,-0.0599 -2.4926,-0.13065 -3.7391,-0.1002 -9.8124,0.23974 -15.4432,8.06436 18.7057,-12.94633 -0.4413,-0.55779 -0.9805,-1.05051 -1.324,-1.67338 -0.1019,-0.18496 0.3643,0.21878 0.5624,0.29196 0.4748,0.17543 0.966,0.30316 1.4501,0.45144 2.5425,0.77888 5.089,1.54577 7.6448,2.28003 9.1664,2.52294 18.3787,4.92861 27.7005,6.80915 3.1752,0.5615 5.6239,1.08235 8.8102,1.33103 1.026,0.0801 2.0668,0.20199 3.0865,0.0633 0.4802,-0.0653 1.6913,-0.93919 1.2956,-0.6594 -21.6198,15.2884 -26.4686,21.30968 -20.9868,14.5297 -3.6624,-2.83873 -8.0966,-4.47913 -12.3382,-6.22598 -2.9573,-1.14356 -4.2155,-1.67152 -7.2771,-2.67899 -5.1546,-1.69618 -10.4325,-3.00193 -15.73,-4.16228 -1.0577,-0.22296 -2.1143,-0.45062 -3.173,-0.66887 -0.8532,-0.17592 -1.759,-0.17727 -2.5626,-0.51363 -0.7432,-0.31104 -2.6137,-0.89068 -1.9793,-1.38725 23.2318,-18.18364 13.4787,-14.65686 24.2953,-14.16739 5.3537,0.20701 10.7072,0.40378 16.0644,0.49629 7.2465,0.15428 14.4872,0.41874 21.7299,0.69157 1.6258,0.0421 3.2513,0.0941 4.8773,0.1278 0.4643,0.01 1.7628,-0.26504 1.3932,0.0161 -26.4456,20.11837 -12.9313,17.67516 -22.4281,14.74154 -4.3959,-1.23574 -8.7848,-2.49637 -13.1817,-3.72824 -5.0545,-1.51006 -10.1042,-3.22287 -14.2648,-6.59333 -0.9281,-0.85283 -1.4665,-1.26087 -2.2092,-2.25328 -7.2553,-9.69503 15.966,-14.79835 21.8312,-16.51142 2.3856,0.29166 4.7994,0.31042 7.1872,0.59065 3.451,0.40477 6.8568,1.06073 10.2267,1.91045 3.9278,1.12126 7.7282,2.67666 11.3453,4.57635 3.5569,1.82424 7.1873,3.51578 11.0285,4.66136 1.4949,0.44762 2.4906,0.77552 4.0238,1.11186 2.9183,0.64023 5.905,0.78642 8.8838,0.8355 4.7148,0.13479 9.433,0.27684 14.1252,0.79492 4.491,0.53472 8.9964,0.93007 13.4801,1.5181 5.156,0.84042 10.2636,1.93947 15.4054,2.86034 4.8332,0.82453 9.6201,1.88371 14.4695,2.61423 0.5676,0.0799 1.1413,0.12434 1.7027,0.2396 0.4258,0.0874 1.5968,0.10297 1.2514,0.36685 -6.9953,5.34406 -14.405,10.12277 -21.6075,15.18415 -0.074,-0.0776 -0.1255,-0.1861 -0.2221,-0.23267 -0.4178,-0.20147 -0.9504,-0.0864 -1.3586,-0.30078 -2.5965,-0.50593 -5.2054,-1.02884 -7.8604,-1.07562 -1.7164,0.0487 -3.4413,0.0931 -5.1483,-0.13541 -2.686,-0.27353 -5.3627,-0.65377 -8.0604,-0.80655 -3.5628,-0.0766 -7.1084,0.27287 -10.6693,0.33526 -4.3197,-0.0122 -8.6372,0.0967 -12.9526,0.29236 -4.6596,0.19301 -9.3183,0.15928 -13.9812,0.1133 -5.3501,-0.14085 -10.7084,-0.36944 -16.0096,-1.15278 -0.9354,-0.17257 -1.879,-0.30544 -2.8061,-0.51773 -4.4366,-1.01583 -8.6308,-2.90074 -12.9638,-4.25057 -2.717,-0.88952 -5.453,-1.69803 -8.1824,-2.54667 -1.3901,-0.43222 -3.0579,-1.0112 -4.4757,-1.39249 -0.5902,-0.15871 -1.1906,-0.27629 -1.7859,-0.41443 -0.3996,-0.0247 -0.799,-0.095 -1.1987,-0.074 -0.2857,0.015 -0.5593,0.12085 -0.839,0.18112 -1.1056,0.23826 -2.2049,0.49081 -3.2779,0.85527 -3.4009,1.06191 -6.8155,2.08472 -10.1819,3.25232 -3.196,1.17947 -6.3286,2.5373 -9.5896,3.53356 -2.4724,0.63561 -4.9934,1.12372 -7.3325,2.18918 -2.6802,1.01835 -5.3895,1.96974 -8.146,2.76166 -2.4246,0.6758 -4.8984,1.0663 -7.3755,1.49884 -1.57685,0.12767 -3.15299,0.0677 -4.73359,0.0446 -1.6653,-0.007 -3.32548,0.0581 -4.98676,0.173 -2.1024,0.15341 -4.18444,0.43076 -6.2603,0.79534 -2.50397,0.16768 -5.01973,0.0635 -7.52023,0.31445 -2.28077,0.25613 -4.55553,0.56297 -6.82737,0.88616 -2.28442,0.39128 -4.53582,0.95791 -6.83247,1.26632 -3.49032,0.30227 -6.98295,0.58914 -10.47928,0.81157 -4.06495,0.23843 -8.13465,0.47807 -12.20875,0.39093 -3.19116,-0.0129 -6.38752,0.0144 -9.57224,0.23028 0,0 21.32511,-15.4936 21.32511,-15.4936 z"
         id="path5345"
         style="opacity:1;fill:#445500;fill-opacity:1;stroke:none;stroke-width:0.75590551;stroke-linecap:square;stroke-linejoin:miter;stroke-miterlimit:4;stroke-dasharray:none;stroke-dashoffset:0;stroke-opacity:1;paint-order:stroke fill markers" />
      <path
         inkscape:connector-curvature="0"
         d="m 900.66564,-661.33493 c -2.06134,-0.9047 -4.38045,-1.30602 -6.28498,-2.56272 -1.90696,-1.2583 -2.62418,-2.29051 -4.15673,-3.99598 -3.22235,-4.39047 -5.67826,-9.29233 -7.8096,-14.28891 -0.39969,-0.74891 -0.52462,-1.62549 -0.91681,-2.37967 -0.0531,-0.10205 -0.16466,-0.16065 -0.24699,-0.24097 7.7514,-3.94706 15.30547,-8.30831 23.25421,-11.84118 0.47018,-0.20897 -0.09,1.02705 -0.0805,1.54149 0.0132,0.71594 0.0989,1.4287 0.14839,2.14304 0.43129,5.29916 2.1307,10.3451 4.02058,15.27412 0.29103,0.68826 0.88317,2.23839 1.377,2.93463 0.14035,0.19787 0.30614,0.51299 0.54656,0.48056 0.2133,-0.0288 0.45507,-0.68674 0.26291,-0.58976 -21.20946,10.70367 -28.83969,17.05991 -21.06451,10.71718 1.98235,-3.9034 2.43372,-8.34648 2.6819,-12.6581 0.0797,-3.52213 -0.6012,-7.02918 -1.89142,-10.30173 -5.84449,6.61983 1.82989,-2.12662 22.63638,-11.21019 0.57945,-0.25297 -0.51527,1.15848 -0.69708,1.76404 -0.24783,0.82547 -0.41323,1.6739 -0.58844,2.51778 -0.39888,1.92111 -0.71768,3.858 -1.086,5.78521 -1.27956,6.30132 -2.41449,12.63062 -3.65013,18.94035 -0.57395,2.6179 -1.02532,5.28528 -1.92912,7.81798 -0.13985,0.39189 -0.0911,0.9639 -0.45734,1.16151 -7.84229,4.23197 -15.93233,7.98783 -23.8985,11.98175 -3.3062,-3.00147 -5.99818,-6.59867 -8.87645,-9.99722 -2.36321,-2.97211 -4.01007,-6.40937 -5.86116,-9.7022 -0.24625,-0.26497 -1.369,-2.80947 -1.74999,-2.87563 -0.16394,-0.0285 -0.14329,0.31031 -0.14835,0.47663 -0.0104,0.34028 -0.19846,1.17452 0.10288,1.01611 7.46044,-3.92179 14.61655,-8.39707 21.92482,-12.59561 -0.24025,0.25625 -0.53862,0.46841 -0.72076,0.76876 -1.30297,2.1486 -1.44695,6.47594 -1.57534,8.95403 -0.0323,2.43311 -0.0293,4.87694 0.2373,7.2983 -24.65278,16.04249 -18.62769,19.06186 -26.92026,8.02015 -0.23554,-0.32244 -0.46968,-0.64589 -0.70661,-0.96731 -0.19653,-0.2666 -0.37728,-0.54606 -0.59377,-0.79673 -0.13485,-0.15613 -0.29471,-0.54739 -0.45587,-0.4186 -0.20853,0.16663 -0.26012,0.92104 -0.022,0.80046 22.05344,-11.16736 26.15553,-19.46321 21.29403,-10.43923 -1.43107,5.08224 -1.51839,10.41741 -1.57626,15.6617 -0.13881,4.3028 -0.044,8.61022 0.1662,12.90899 0.0111,0.19506 0.10158,1.96733 0.153,2.28982 0.24067,1.50913 1.75834,-3.19354 -0.97476,-1.88768 -21.14258,10.10181 -25.22483,21.44394 -21.71479,12.2395 0.79691,-3.35183 1.17892,-6.80817 1.53112,-10.23315 0.17485,-2.08834 0.20977,-4.18598 0.20259,-6.28061 -0.004,-1.14656 7.2e-4,-2.27718 -0.22111,-3.40332 -6.89166,-5.688 -0.85731,-0.62906 23.49222,-11.46923 0.28626,-0.12744 -0.16363,0.60559 -0.22209,0.91344 -0.28401,1.49548 -0.38139,3.0251 -0.49786,4.5394 -0.45957,4.98593 -0.78188,9.97326 -0.84681,14.98039 -0.0631,4.26314 0.13179,8.5138 -0.14328,12.77077 -0.17288,1.84026 -0.27446,3.68343 -0.39149,5.52704 -0.49182,9.6958 0.13391,2.3069 -23.7115,13.15459 -0.44458,0.20224 -0.68719,-0.69462 -1.01612,-1.05567 -1.08266,-1.18836 -2.02387,-2.44456 -2.93473,-3.76631 -2.05265,-3.11217 -3.32687,-6.64641 -4.61998,-10.12093 -0.5058,-1.36094 -0.35452,-0.91141 -0.77022,-2.17763 -0.0827,-0.2519 -0.13479,-0.51553 -0.2446,-0.75685 -0.0184,-0.0405 -0.16289,-0.0315 -0.12308,-0.0512 23.83775,-11.82275 29.37681,-17.7654 22.82421,-10.89643 -1.00598,3.24818 -1.18585,6.66513 -1.31828,10.04005 -0.0341,2.30503 -0.18474,4.60381 -0.32302,6.90376 -0.14567,1.98671 -0.24605,3.96876 -0.26453,5.96156 -0.10748,2.51972 0.19569,4.99175 0.74361,7.44447 0.41907,2.428 1.22441,4.73133 2.28474,6.94474 1.02914,1.58515 1.75286,3.28943 2.36653,5.06737 0.54471,1.67387 0.84145,3.41467 1.03898,5.15985 0.13495,1.29335 0.11165,2.59572 0.12217,3.8943 -0.0424,1.22195 -0.005,2.44364 0.0208,3.66513 0.0318,0.80537 0.0452,1.6147 0.0153,2.42019 0.002,0.13733 0.004,0.27466 0.005,0.41199 0,0 -23.53609,11.99219 -23.53609,11.99219 v 0 c 0.002,-0.13922 0.004,-0.27844 0.005,-0.41765 -0.0312,-0.81274 -0.0145,-1.62953 0.0183,-2.44212 0.03,-1.23213 0.0741,-2.46441 0.0395,-3.69726 0.0156,-1.24886 0.0117,-2.49738 0.006,-3.74626 -0.0378,-1.55859 -0.14519,-3.12527 -0.62507,-4.62035 -0.56283,-1.69565 -1.2321,-3.31711 -2.13843,-4.86678 -1.0908,-2.39874 -1.81174,-4.94339 -2.38596,-7.51101 -0.61472,-2.59943 -1.22265,-5.23015 -1.1215,-7.92034 -0.002,-2.01729 -0.1323,-4.03809 0.0122,-6.04975 0.22355,-2.35151 0.67901,-4.67797 0.73635,-7.04278 0.23662,-3.42166 0.55365,-6.83693 0.79958,-10.25795 -1.10041,-10.13036 -0.61403,-1.85445 23.67303,-13.44945 0.15095,-0.0721 0.44068,2.30613 0.45735,2.39382 0.0771,0.40532 0.16959,0.80755 0.25439,1.21132 0.88182,3.33339 2.10903,6.59419 4.15215,9.40537 0.61552,0.75864 1.17545,1.5167 1.90646,2.17122 0.2816,0.25214 0.56998,0.51102 0.90935,0.67748 0.18355,0.09 0.78663,-0.0347 0.6096,0.0676 -22.27021,12.86558 -29.90421,8.32256 -21.81391,12.89045 0.1145,-0.081 0.26171,-0.12907 0.34351,-0.243 0.26455,-0.36843 0.29476,-1.00011 0.35075,-1.3996 0.16404,-1.17063 0.35125,-2.33537 0.58197,-3.49545 0.70315,-4.25638 0.844,-8.54713 0.84832,-12.85818 0.14049,-4.92225 0.10974,-9.84642 0.3278,-14.76577 -0.029,-13.56726 -2.15391,-4.35701 23.69227,-17.57393 0.0752,-0.0385 -0.11567,0.12322 -0.1735,0.18483 -0.6882,3.33527 -0.4304,6.82262 -0.75553,10.19786 -0.11099,3.43622 -0.30974,6.8576 -0.73267,10.27213 -0.0253,0.36048 0.22152,0.87614 -0.0759,1.08143 -9.44573,6.52031 -18.68384,22.59564 -23.87557,12.43534 -0.23046,-0.45101 0.29962,-2.68978 0.13114,-3.17043 0.18744,-4.40564 0.27661,-8.81525 0.29746,-13.22476 0.21725,-5.34455 0.42516,-10.69308 0.94005,-16.01926 0.0397,-0.66677 -0.43387,-1.62577 0.1192,-2.0003 7.31988,-4.95689 17.45101,-20.39343 24.19052,-12.85706 0.64613,0.72253 0.91334,1.72494 1.55794,2.45063 0.70666,0.95882 1.38682,1.99933 2.26652,2.81421 0.16392,0.15184 0.3233,0.36815 0.54574,0.38922 0.11466,0.0109 0.21153,-0.38454 0.11181,-0.32692 -7.48712,4.32606 -14.89791,8.7829 -22.34686,13.17435 0.17343,0.002 0.40018,0.1308 0.52028,0.006 0.23468,-0.24449 0.24338,-1.76892 0.24948,-1.87686 0.0909,-1.60919 0.19644,-3.21753 0.28372,-4.82694 0.17834,-3.66158 0.31816,-7.3354 0.94238,-10.95593 4.44307,-2.67404 19.81873,-19.75207 24.87263,-12.22698 0.65642,0.9774 0.76736,2.25276 1.40009,3.24355 1.57943,3.27093 3.27197,6.48294 5.50006,9.37084 1.83288,2.54588 4.33331,6.22351 7.06855,7.80122 0.36856,0.21259 0.80632,0.272 1.20949,0.408 -7.22987,4.14151 -14.56671,8.10162 -21.6896,12.42453 -0.34236,0.20778 0.86013,0.21942 1.20139,0.01 0.40453,-0.24843 0.53216,-0.7887 0.75199,-1.20946 1.07048,-2.04893 1.65518,-4.30631 2.283,-6.51523 0.57071,-2.31194 0.97963,-3.83344 1.42181,-6.19461 0.78769,-4.20615 1.36236,-8.45527 2.24815,-12.64463 0.44885,-2.67122 0.91174,-5.34281 1.06166,-8.05242 0.035,-0.63246 -0.50744,-1.55809 0.0257,-1.90011 23.12062,-14.83139 19.93249,-21.3506 23.87479,-12.24204 0.67695,3.75216 1.66665,7.48384 1.62705,11.32423 -0.0558,4.57754 -0.6599,9.07029 -1.82827,13.50357 -0.10508,0.64555 0.24306,1.59594 -0.31524,1.93664 -7.8294,4.77794 -21.82141,19.09475 -25.37629,10.6395 -0.25963,-0.61753 -0.85708,-2.81545 -1.0033,-3.33167 -1.59692,-5.16588 -3.20772,-10.32914 -4.35372,-15.62034 -0.16068,-0.67519 -0.29857,-1.35623 -0.48205,-2.02559 -0.13472,-0.49143 -0.90126,-1.17978 -0.47181,-1.45407 27.67178,-17.67394 21.38684,-21.04775 23.67749,-9.99625 1.31641,4.94947 3.38199,9.6771 6.72379,13.61732 0.65144,0.59351 1.2463,1.25579 1.95432,1.78051 2.47539,1.83453 5.72932,2.48249 8.7392,2.61281 0,0 -21.57116,15.20944 -21.57116,15.20944 z"
         id="path5347"
         style="opacity:1;fill:#445500;fill-opacity:1;stroke:none;stroke-width:0.75590551;stroke-linecap:square;stroke-linejoin:miter;stroke-miterlimit:4;stroke-dasharray:none;stroke-dashoffset:0;stroke-opacity:1;paint-order:stroke fill markers" />
      <path
         inkscape:connector-curvature="0"
         d="m 1167.2098,-715.02129 c 2.808,0.30499 5.5738,0.96609 8.3179,1.62291 2.2189,0.54976 4.4047,1.36742 6.3732,2.54588 0.9437,0.56494 1.7813,1.24964 2.65,1.91811 2.4502,1.85155 4.5677,4.10246 6.7842,6.22194 1.7074,1.61362 3.2489,3.38512 4.928,5.02559 1.5099,1.55178 3.2962,2.75922 5.1431,3.86691 0.3632,0.22669 0.7233,0.45837 1.0895,0.68009 0.7537,0.45622 1.5494,0.84192 2.2925,1.31504 1.3066,0.83185 2.4921,1.8725 3.7355,2.79385 2.3877,1.7116 4.8591,3.30016 7.3839,4.80094 0.3482,0.16346 0.6898,0.34157 1.0445,0.49039 0.6607,0.27726 1.1731,0.43123 1.8614,0.59646 0.6007,0.14418 1.1155,0.17056 1.6284,0.51926 -7.5481,4.70668 -14.9523,9.6525 -22.6443,14.12004 -0.2545,0.14777 -0.4328,-0.39938 -0.6622,-0.58365 -1.6312,-1.31042 -3.3742,-2.49945 -5.085,-3.70189 -2.0491,-1.52153 -4.1779,-2.92853 -6.2625,-4.39924 -0.6606,-0.55741 -1.473,-0.89622 -2.1772,-1.38449 -0.443,-0.30714 -0.8247,-0.70759 -1.2447,-1.04519 -1.3343,-1.34067 -2.198,-3.12606 -3.1067,-4.77217 -1.0294,-1.66544 -1.9441,-3.40074 -2.9856,-5.05843 -0.4406,-0.67887 -1.0209,-1.25824 -1.7013,-1.69636 -0.1583,-0.10194 -0.3418,-0.16675 -0.4863,-0.28748 -0.196,-0.16378 -0.3503,-0.37187 -0.5254,-0.55781 -0.3659,-0.62017 -1.0063,-0.99456 -1.369,-1.61689 -5.4704,-9.38628 22.0497,-14.66469 22.6884,-15.01302 2.5388,0.95489 5.0117,2.05663 7.5077,3.11208 2.0581,0.79585 3.8251,2.15482 5.8394,3.02975 9.8192,3.08476 2.0081,1.52415 -20.9477,15.09377 -0.382,0.22581 -0.7503,-0.47665 -1.1459,-0.6776 -0.657,-0.33369 -1.3387,-0.61623 -2.0081,-0.92435 -6.2925,-2.64635 -12.7787,-4.78965 -19.2411,-6.97497 -3.8852,-1.28496 -7.5433,-3.04555 -10.9819,-5.25025 -0.7796,-0.19018 -1.1806,-1.122 -1.9295,-1.36973 -0.1277,-0.0422 -0.4548,0.28721 -0.3393,0.21823 7.5488,-4.51049 14.9645,-9.25094 22.6398,-13.54287 0.2255,-0.12611 0.2727,0.44308 0.4494,0.6316 0.4965,0.52972 1.0424,1.01081 1.5637,1.51622 5.719,4.56404 12.1128,8.19677 18.4068,11.89614 5.7517,3.45096 11.2711,7.26996 16.9122,10.89697 3.4242,2.09242 6.8709,4.14573 10.474,5.9162 0.2712,0.11152 0.5431,0.22174 0.8138,0.33457 0.6682,0.27845 0.7059,0.34218 1.3946,0.48377 0.8626,0.17733 0.6075,0.006 1.5137,0.31193 0.3435,0.11592 0.6725,0.27106 1.0088,0.4066 2.7803,1.01297 5.6956,1.48802 8.5982,1.99858 2.0458,0.32341 4.1101,0.51407 6.1773,0.6289 0.1705,0.009 3.0786,0.13768 3.3864,0.10747 0.3542,-0.0348 0.6857,-0.19115 1.0285,-0.28672 -7.423,4.22033 -14.8797,8.38191 -22.2689,12.661 -0.069,0.0401 0.2523,0.18122 0.2125,0.11179 -0.2949,-0.51416 -0.6306,-1.00609 -0.9939,-1.47441 -0.606,-0.78123 -1.2443,-1.53837 -1.9101,-2.26924 -2.0505,-2.25049 -2.9734,-3.0017 -5.2373,-5.0795 -0.9475,-0.80542 -1.8853,-1.62236 -2.8425,-2.41628 -2.2094,-1.83263 -3.3513,-2.75869 -5.6973,-4.36075 -2.2863,-1.5613 -4.7023,-2.90229 -7.1067,-4.26799 -2.6964,-1.47054 -5.3913,-2.96161 -8.3456,-3.84144 -0.4578,-0.20191 -0.9586,-0.0733 -1.4289,-0.1668 -0.323,-0.0642 -0.6306,-0.19022 -0.9463,-0.28403 -1.57,-0.46654 -3.1177,-0.98507 -4.6697,-1.50902 -3.3621,-0.8531 -6.527,-2.50568 -9.9547,-3.09078 -5.3423,8.32834 17.834,-17.02352 22.1083,-13.30442 1.0636,0.92539 1.9509,1.5773 3.1178,2.39666 2.4789,1.69098 5.1541,3.09026 7.5766,4.86633 0.6502,0.47675 1.2668,0.99782 1.9002,1.49673 3.8092,3.06615 7.4552,6.32419 11.1697,9.50203 2.4196,2.00074 4.4282,4.43769 6.5369,6.75095 2.2286,2.48096 4.9189,4.49609 7.8153,6.12758 3.4089,1.73167 7.0313,3.03006 10.7355,3.9597 3.8552,0.84227 7.8072,0.9658 11.7374,0.9932 2.3538,0.25777 4.6898,0.65344 7.0507,0.84448 1.4648,0.38777 2.5391,1.56053 3.4524,2.71309 4.3553,10.0036 1.7372,2.24779 -22.8119,14.15343 -0.2346,0.11377 -0.4158,-0.31495 -0.6312,-0.46183 -0.7049,-0.48068 -1.4308,-0.92531 -2.1805,-1.33116 -1.9902,-1.26042 -3.6042,-3.07018 -5.2609,-4.73473 -1.2261,-1.23506 -2.4944,-2.4186 -3.5747,-3.78649 -0.8609,-1.11749 -1.6783,-2.25764 -2.5962,-3.3321 -0.3546,-0.45946 -0.6362,-0.88477 -1.0799,-1.25865 -0.1152,-0.0971 -0.2441,-0.18434 -0.3858,-0.2356 -0.067,-0.0243 -0.2749,0.0546 -0.2131,0.0189 23.0531,-13.30397 19.6374,-21.25644 23.147,-12.3779 1.2076,2.45885 2.5661,4.84089 3.9087,7.22814 1.1335,2.03907 1.969,4.186 2.421,6.47025 0.4178,1.80689 0.7771,3.62529 1.045,5.4605 0.1272,1.29755 0.3592,2.55042 0.7249,3.80239 0.6187,1.95959 1.8331,3.64695 2.7385,5.47754 0.3687,0.80647 0.8429,1.69575 1.6709,2.10186 0.8952,0.62383 1.7401,1.29247 2.7031,1.8112 1.2532,0.80629 2.3041,1.89596 3.2135,3.06729 0.9447,1.39694 1.2183,2.97473 1.3785,4.61531 0.1069,1.26451 0.091,2.5336 0.1056,3.80117 -0.088,0.9269 0.2084,1.91746 -0.018,2.83293 -0.059,0.2374 -0.204,0.44454 -0.306,0.66682 -0.8328,1.47911 -2.0522,2.67275 -3.0916,4.00048 -0.9834,1.36852 -1.4932,2.96359 -1.787,4.60381 -0.2111,1.24299 -0.1769,2.50356 -0.1988,3.75851 0.03,1.27771 0,2.55757 0.069,3.83343 0.2274,2.21805 0.2212,4.44678 0.3035,6.67218 0.1056,2.20913 0.025,4.42026 0.1623,6.62812 0.2095,1.99873 0.2912,4.01393 0.5349,6.0077 0.3623,2.374 1.3386,4.57713 2.2129,6.79308 0.4655,1.44802 1.2334,2.70108 2.0815,3.94536 0.639,0.99504 1.2389,1.99873 1.7012,3.08707 0.7862,2.19349 1.7376,4.31925 2.7179,6.43101 0.4961,1.05607 0.9126,2.14191 1.2953,3.24295 0,0 -23.2828,12.51231 -23.2828,12.51231 v 0 c -0.087,-1.0382 -0.3486,-2.04604 -0.7048,-3.02452 -0.8098,-2.11997 -1.7095,-4.19884 -2.8444,-6.16803 -0.5574,-0.92585 -1.0508,-1.86068 -1.5061,-2.8403 -0.9266,-1.45703 -1.8885,-2.87647 -2.2956,-4.58472 -0.7006,-2.42227 -1.5807,-4.78773 -2.3764,-7.17937 -0.1452,-0.6793 -0.3269,-1.42076 -0.3892,-2.11731 -0.1227,-1.37261 0.015,-2.77204 -0.1946,-4.14132 -0.1983,-2.25016 -0.2976,-4.49548 -0.2177,-6.75655 -0.013,-2.1243 -0.1187,-4.25136 -0.3964,-6.3588 -0.088,-0.51671 -0.2188,-1.02696 -0.2764,-1.54793 -0.091,-0.82579 0.096,-1.67425 0.01,-2.50193 -0.033,-1.36895 -0.034,-2.74374 0.049,-4.11018 0.2225,-1.95589 0.7102,-3.85509 1.4949,-5.66601 0.7318,-1.48961 1.6768,-2.76296 2.8676,-3.92109 1.1905,-1.26622 -0.3649,0.23982 0.7286,-0.44834 0.4209,-0.26487 0.067,-1.32659 0.1925,-1.71233 0.031,-1.22495 0.049,-2.44974 0.051,-3.67526 -0.025,-1.10583 -0.021,-2.25547 -0.6094,-3.23353 -0.7595,-0.95317 -1.742,-1.63243 -2.785,-2.24903 -0.9989,-0.70131 -2.0429,-1.33729 -3.0102,-2.07918 -0.8986,-0.94742 -1.5958,-2.02184 -2.0367,-3.26182 -0.7634,-1.98253 -1.9897,-3.71958 -2.7804,-5.68889 -0.5749,-1.4004 -1.2582,-2.73566 -1.1084,-4.29318 -0.1072,-1.78671 -0.3476,-3.5589 -0.8811,-5.27427 -0.4053,-2.03504 -0.6589,-4.10246 -1.7113,-5.94703 -1.3122,-2.41838 -2.7702,-4.76377 -4.2784,-7.06425 -5.3536,-8.10457 -1.0145,-0.98699 21.9062,-14.84013 0.01,-0.005 0.751,0.98522 1.1928,1.53858 0.1794,0.2246 0.3679,0.44168 0.5519,0.66252 0.9542,1.12584 1.9348,2.23011 2.8532,3.38387 0.9091,1.3131 1.8769,2.5693 3.0284,3.68821 1.5099,1.54951 3.0968,3.02536 5.0593,3.98599 0.5559,0.31859 0.8918,0.53148 1.4747,0.78807 0.227,0.1 0.4543,0.20577 0.6948,0.26674 0.154,0.039 0.6142,-0.0473 0.4755,0.03 -23.3109,12.99295 -27.421,5.0477 -21.7639,14.19065 -0.041,-0.71834 -1.556,-0.89448 -2.0853,-0.93352 -2.1039,-0.43819 -4.2184,-0.88789 -6.371,-0.98958 -4.008,-0.24446 -8.0507,-0.48816 -11.9378,-1.57255 -3.8986,-1.12764 -7.7118,-2.54455 -11.3246,-4.40784 -3,-1.88151 -5.7308,-4.14003 -8.1281,-6.75383 -2.1747,-2.18464 -4.3087,-4.40641 -6.4237,-6.64882 -3.3161,-3.40282 -6.7158,-6.75352 -10.705,-9.3775 -3.2538,-2.03787 -6.5681,-3.97835 -9.7822,-6.08038 -0.2672,-0.16687 -2.5997,-1.61916 -2.8862,-1.81694 -9.683,-6.68414 11.3644,-10.83174 20.2376,-16.264 0.2038,-0.12479 0.3755,0.2958 0.5632,0.44369 3.0509,1.3579 6.1592,2.61047 9.4112,3.4061 2.5117,0.57949 1.4723,0.36883 3.8115,0.80546 0.7698,0.14368 1.5522,0.22183 2.3155,0.3967 0.6154,0.14099 1.0581,0.3651 1.6329,0.61487 2.7034,1.4106 5.31,2.99652 7.8484,4.68596 5.3437,3.58193 10.4004,7.56871 15.2039,11.84865 1.8832,1.65419 3.7441,3.33401 5.6419,4.97153 0.6469,0.55826 3.5565,2.89265 4.2783,3.77413 0.5158,0.62976 1.9511,1.59215 1.2932,2.07146 -7.1418,5.20307 -15.1792,9.04969 -22.7688,13.57453 -3.4751,-0.54264 -7.0063,-0.68896 -10.4801,-1.25482 -3.1202,-0.47214 -6.2311,-0.99828 -9.2351,-1.99543 -1.8028,-0.39827 -3.5454,-0.90435 -5.0335,-2.05654 -3.1725,-2.22866 -6.3257,-4.48415 -9.5294,-6.6681 -5.5331,-3.68551 -11.0146,-7.44815 -16.6625,-10.95898 -6.3317,-3.97415 -12.6991,-7.89207 -19.1072,-11.74184 -0.7821,-0.47552 -1.5932,-0.90645 -2.3464,-1.42657 -0.4678,-0.32297 -1.7658,-0.76089 -1.3065,-1.09581 27.769,-20.25178 15.4492,-19.2501 24.3463,-12.32796 3.0673,2.17873 6.4591,3.78936 9.9269,5.23264 6.3483,2.63471 12.8179,4.98017 19.469,6.73864 0.8189,0.20425 1.6314,0.43629 2.4568,0.61274 0.514,0.10989 1.9774,-0.0708 1.5576,0.2455 -23.269,17.53162 -14.0394,18.98798 -22.7405,14.16358 -1.7688,-1.0903 -3.5121,-2.23394 -5.4249,-3.06626 -1.8321,-0.8111 -4.442,-1.99995 -6.4769,-1.93206 -0.2605,0.009 -0.51,0.1074 -0.765,0.1611 7.4702,-4.23207 15.1356,-8.13688 22.4108,-12.69619 0.2304,-0.1444 -1.738,-1.91923 -1.0254,-1.05049 0.1561,0.19034 0.3349,0.36102 0.5077,0.53634 0.1389,0.14092 0.2849,0.27477 0.4273,0.41215 1.1278,0.93002 2.2523,1.91232 3.0062,3.1827 0.9578,1.72245 1.5746,3.6237 2.7593,5.2244 0.8302,1.39491 1.6714,2.82138 3.0143,3.78685 0.9618,0.86911 1.9437,1.71222 3.0268,2.43502 1.9868,1.50713 3.9734,3.0114 5.9242,4.565 1.3416,0.95335 2.6949,1.88497 4.1254,2.70279 9.2539,5.29027 10.1133,-3.15991 -19.7761,15.65842 0.068,0.048 0.2849,0.16061 0.2035,0.14415 -0.1296,-0.0262 -0.2354,-0.12065 -0.3559,-0.17495 -0.9078,-0.40909 -1.8049,-0.79959 -2.6729,-1.29338 -0.3716,-0.2114 -0.7336,-0.43935 -1.1004,-0.65903 -2.4822,-1.62529 -4.9075,-3.33871 -7.3272,-5.05496 -2.309,-1.65177 -4.734,-3.10613 -7.2061,-4.50058 -1.9833,-1.26115 -3.9531,-2.58639 -5.5263,-4.35556 -1.6148,-1.69216 -3.2048,-3.40696 -4.8301,-5.08913 -1.9922,-2.14926 -4.0517,-4.24284 -6.4482,-5.95007 -2.5269,-1.76909 -5.2568,-3.07465 -8.3132,-3.65031 -2.8396,-0.57474 -5.7282,-1.03165 -8.6312,-0.70619 0,0 21.3553,-15.51555 21.3553,-15.51555 z"
         id="path5349"
         style="opacity:1;fill:#445500;fill-opacity:1;stroke:none;stroke-width:0.75590551;stroke-linecap:square;stroke-linejoin:miter;stroke-miterlimit:4;stroke-dasharray:none;stroke-dashoffset:0;stroke-opacity:1;paint-order:stroke fill markers" />
      <path
         inkscape:connector-curvature="0"
         d="m 848.44118,-562.09058 c -0.65042,-1.12468 -1.25477,-2.26829 -1.70651,-3.48757 -0.21941,-0.85471 -0.58238,-1.66572 -0.94979,-2.46593 -0.0321,-0.0408 -0.1165,-0.1704 -0.0963,-0.12253 1.65185,3.91875 2.84031,-0.9933 9.23763,-4.68898 0.0815,-0.0471 -0.0703,0.17565 -0.0891,0.26783 -0.0459,0.22402 -0.0697,0.7368 -0.0826,0.9355 -0.0892,1.90579 -0.077,3.81404 -0.0625,5.72125 0.0236,1.50601 0.0342,3.01197 0.0378,4.51811 0.0818,1.27247 -0.0452,2.53088 -0.20966,3.79039 -0.16725,1.17633 -0.24415,2.36159 -0.28512,3.54812 -0.0275,0.9132 -0.0307,1.82668 -8.4e-4,2.73978 4.7e-4,0.48246 0.0192,0.96506 0.005,1.44732 -0.0147,0.65223 0.005,1.30472 -0.008,1.95679 -0.005,0.76446 -0.0121,1.5292 0.005,2.29358 -0.12439,0.0933 0.13998,1.01396 0.0767,1.04781 -9.60252,5.13652 -7.76019,7.7814 -9.917,4.25008 -0.51978,-1.09934 -0.49972,-2.3363 -0.65959,-3.51771 -0.35192,-1.27428 -0.84623,-2.50167 -1.21431,-3.77375 -2.04975,-3.75021 9.59903,-9.01202 9.06085,-5.5573 -4.7e-4,0.0436 0.0219,0.16755 -10e-4,0.13072 -2.14675,-3.39631 7.50329,-3.64506 -9.21887,4.09432 -0.23201,0.10738 0.26952,-0.43508 0.38717,-0.66206 0.39218,-0.7566 0.48435,-1.08499 0.79569,-1.91362 1.00126,-2.60724 2.07317,-5.1801 2.8365,-7.87032 0.14544,-1.1071 0.95981,-2.38945 0.85881,-3.51934 3.18277,-1.56025 6.28475,-3.29744 9.54831,-4.68075 0.17988,-0.0762 0.13325,0.36851 0.17502,0.55936 0.32358,1.47832 0.17318,3.07309 0.12878,4.56912 -0.0829,2.15316 -0.15803,4.30637 -0.19549,6.46085 -0.0564,4.6815 1.11624,2.10195 -9.43271,5.98107 -0.35292,0.12978 0.0894,-0.74678 0.12651,-1.12097 0.0527,-0.53097 0.0953,-1.0629 0.14289,-1.59434 0.20967,-3.87586 0.46792,-7.74973 0.66936,-11.62636 0.0743,-1.70402 0.0423,-0.88829 0.0977,-2.44712 0,0 9.29024,-4.67075 9.29024,-4.67075 v 0 c -0.11484,1.59872 -0.0524,0.76295 -0.18876,2.5072 -0.31126,3.8656 -0.66882,7.73238 -0.66957,11.61407 -0.0105,0.51414 -0.0256,1.0282 -0.0314,1.54241 -0.004,0.32248 0.27492,0.79393 0.003,0.9675 -11.13526,7.11102 -9.48144,8.26048 -9.3568,3.57637 0.0901,-2.17486 0.22683,-4.34741 0.32093,-6.52211 0.0183,-0.71751 0.0633,-1.87413 0.0246,-2.60669 -0.27823,-5.26548 -3.32701,-0.59588 9.07445,-6.8037 -0.28227,-0.0272 -0.14364,-0.0652 -0.27535,0.35003 -0.31623,0.99691 -0.54217,2.02138 -0.91338,3.00176 -0.78048,2.69955 -1.86417,5.28418 -2.81976,7.92245 -0.1007,0.32193 -0.68518,2.52658 -0.9689,2.70706 -3.08658,1.96346 -7.93485,8.8883 -9.89498,4.98063 -0.0236,-0.047 0.005,-0.10506 0.008,-0.1576 -0.11998,-4.17831 9.6131,-8.96652 9.67093,-4.23009 0.31376,1.3268 0.81343,2.5789 1.27397,3.85807 0.19022,1.03702 0.0811,2.13163 0.4747,3.1278 2.15609,3.05044 0.0851,-0.0215 -8.92697,5.39246 -0.0685,0.0412 0.11903,0.16875 0.19402,0.14102 0.0624,-0.0231 -0.0336,-0.62907 0.0103,-0.6996 0.0165,-0.76599 0.0104,-1.53232 0.005,-2.29838 -0.0129,-0.64887 0.007,-1.29818 -0.009,-1.94719 -0.0161,-0.48273 10e-4,-0.96598 -10e-4,-1.44896 0.0272,-0.9324 0.0268,-1.86497 0.0413,-2.7976 0.0321,-1.2223 0.0938,-2.44468 0.26319,-3.65687 0.16513,-1.22121 0.33635,-2.42901 0.27235,-3.66601 0.002,-1.51695 0.01,-3.03377 0.0282,-4.55064 0.009,-1.9002 0.004,-3.80027 -0.0454,-5.69992 -9.2e-4,-0.0934 -0.0945,-1.34994 -0.0125,-1.40624 3.06799,-2.10629 7.59162,-9.01007 9.66456,-4.91532 0.32901,0.84771 0.78109,1.65418 0.97345,2.54472 0.34405,1.1604 0.87314,2.25139 1.56871,3.24426 0,0 -9.10715,5.33651 -9.10715,5.33651 z"
         id="path5351"
         style="opacity:1;fill:#445500;fill-opacity:1;stroke:none;stroke-width:0.75590551;stroke-linecap:square;stroke-linejoin:miter;stroke-miterlimit:4;stroke-dasharray:none;stroke-dashoffset:0;stroke-opacity:1;paint-order:stroke fill markers" />
      <path
         inkscape:connector-curvature="0"
         d="m 1269.0081,-576.85542 c -0.097,2.25721 -0.076,4.51729 -0.049,6.77577 0.04,1.35706 0.031,2.71466 0.053,4.07191 0,0.93483 -0.1188,1.40624 0.4458,2.17813 0.9437,1.05804 1.9447,2.05606 2.8766,3.12562 0.3829,0.51719 0.411,0.54018 0.7459,1.04426 0.083,0.12524 0.1447,0.26635 0.2433,0.37986 0.024,0.0272 0.1377,0.005 0.1058,0.022 -9.4444,4.92288 -10.6673,7.93597 -9.1056,4.37108 -0.147,-2.46867 -0.4736,-4.92339 -0.7156,-7.38424 -0.091,-1.08155 -0.2279,-2.16202 -0.2795,-3.2467 0.04,-1.3005 0.045,-2.60133 0.042,-3.90232 -0.035,-1.31919 0.094,-2.65063 -0.04,-3.9662 10.662,-5.43984 9.4276,-7.47371 9.3685,-2.5512 -0.013,1.05047 0,2.10006 -0.02,3.15058 -0.031,2.77105 -0.034,5.54241 -0.023,8.31361 9e-4,2.10989 0.033,4.21948 0.062,6.32911 -0.093,1.2333 0.3367,2.37914 0.6662,3.54363 0.054,0.19081 0.3183,1.71458 0.6088,1.63806 0.7787,-0.2029 1.6954,-0.0834 2.5129,-0.0916 1.1965,0.12285 1.6065,1.11388 2.1104,2.04789 0.4483,0.85104 0.6687,1.78415 1.1298,2.629 0.444,0.45505 0.964,0.83193 1.4453,1.25616 0.1572,0.12222 0.3192,0.23864 0.4717,0.36666 0.46,0.38602 0.5702,0.5074 0.9659,0.96005 0.1276,0.14598 0.2297,0.31569 0.3728,0.44654 0.045,0.0408 0.2274,0.0254 0.1736,0.0531 -3.0825,1.58547 -6.2031,3.09566 -9.3047,4.64348 -0.7273,-1.95589 -1.4192,-3.91696 -2.0595,-5.90372 -0.5397,-1.34434 -0.6322,-2.79812 -0.9565,-4.19321 -0.9648,-2.21151 -14.1839,6.33801 9.0953,-4.81135 0.1122,-0.0537 -0.1021,0.22795 -0.1344,0.34804 -0.059,0.2188 -0.089,0.61232 -0.111,0.83314 -0.1341,1.82432 -0.1218,3.65885 -0.072,5.48658 0.2357,4.45203 1.2015,1.31365 -9.4843,5.84036 -0.034,0.0143 -1.2056,-1.98855 -1.2923,-2.13241 -1.5956,-2.44339 -2.6674,-5.17147 -3.7416,-7.87156 -1.2036,-3.00238 -2.5543,-5.93964 -3.8381,-8.90762 -1.2172,-2.80798 -2.0422,-5.76074 -3.1521,-8.6086 -0.457,-1.17252 -0.9614,-2.326 -1.4389,-3.49031 -0.9423,-2.26936 -1.4551,-4.67565 -2.2739,-6.98608 -0.9859,-2.2046 -1.6342,-4.49913 -2.1055,-6.85912 -0.8653,-4.00019 -1.7832,-7.98616 -2.9581,-11.90763 -1.1885,-3.87839 -2.4276,-7.73641 -3.4724,-11.65657 -1.243,-5.01239 -1.614,-10.18254 -1.9408,-15.31994 -0.1368,-2.43095 -0.073,-1.28247 -0.1925,-3.44544 0,0 9.1674,-4.70147 9.1674,-4.70147 v 0 c 0,2.20418 -0.012,1.03678 0.029,3.50213 0.1861,5.08317 0.5213,10.19476 1.817,15.13571 1.1025,3.89172 2.435,7.71026 3.5454,11.60021 1.1107,3.9491 2.0244,7.94861 3.108,11.90514 0.5435,2.28302 1.1052,4.56729 2.0844,6.71209 0.2611,0.69751 0.5792,1.50829 0.791,2.22543 0.471,1.59484 0.6944,3.26417 1.3509,4.8061 1.5037,4.0283 2.8825,8.10365 4.5219,12.07827 1.3834,2.94168 2.8263,5.84513 3.9019,8.9199 1.0722,2.63019 2.1958,5.26303 3.8145,7.61223 0.3122,0.46761 0.5949,0.95619 0.9351,1.40393 0.075,0.0994 0.3677,0.20322 0.2612,0.26849 -2.9661,1.81864 -6.093,3.36363 -9.084,5.14103 -0.088,0.0524 0.2422,0.16738 0.297,0.0806 0.1048,-0.16616 0.016,-0.39259 0.024,-0.58889 0.035,-1.83717 0.016,-3.67541 -0.04,-5.51201 0.01,-0.15829 -0.028,-1.39426 0.081,-1.46129 3.8379,-2.36322 8.3117,-8.71535 9.7923,-4.64328 0.3266,1.3776 0.2954,2.83808 0.8275,4.17605 0.6101,1.99817 1.2125,3.98954 2.108,5.88611 -11.7381,7.97054 -6.0605,7.76021 -10.8262,4.1565 -0.6116,-0.48831 -1.278,-0.92158 -1.6995,-1.60072 -0.4053,-0.85666 -0.659,-1.76124 -1.0738,-2.61082 -0.468,-0.80812 -0.4622,-1.16256 -1.491,-1.11803 -1.005,-0.0103 -2.1269,0.11737 -2.9934,-0.47533 -0.5524,-0.63671 -0.7473,-1.41163 -0.8626,-2.23568 -0.3197,-1.2581 -0.8558,-2.48943 -0.7488,-3.81193 0.029,-2.13072 0.061,-4.2614 0.062,-6.39238 0.011,-2.7635 0.01,-5.52716 -0.023,-8.29052 -0.023,-1.3626 0,-2.72577 -0.039,-4.08806 -0.01,-0.25475 -0.2464,-0.62607 -0.032,-0.76393 3.0266,-1.94644 6.2798,-3.51562 9.4197,-5.27342 -0.1242,1.33182 -0.016,2.67589 -0.046,4.0109 -0.01,1.27808 -0.013,2.55655 0.04,3.83389 -0.01,1.09408 0,2.18783 0.076,3.28024 0.1612,2.48128 0.3801,4.96409 0.8553,7.40792 0.8538,4.35481 0.4978,1.08096 -9.3089,5.95658 -0.045,0.0226 -0.6564,-1.05406 -0.6747,-1.08113 -0.1157,-0.17165 -0.242,-0.33595 -0.363,-0.50393 -0.9352,-1.10491 -2.0105,-2.07271 -2.9524,-3.17145 -0.7782,-1.04911 -0.8629,-1.49781 -0.7719,-2.76255 0.021,-1.37508 0.013,-2.7505 0.053,-4.12539 0.027,-2.24189 0.05,-4.48552 -0.049,-6.72608 0,0 9.3812,-4.77997 9.3812,-4.77997 z"
         id="path5353"
         style="opacity:1;fill:#445500;fill-opacity:1;stroke:none;stroke-width:0.75590551;stroke-linecap:square;stroke-linejoin:miter;stroke-miterlimit:4;stroke-dasharray:none;stroke-dashoffset:0;stroke-opacity:1;paint-order:stroke fill markers" />
    </g>
    <path
       style="fill:#000000;stroke-width:0.32823542"
       d="m 1157.1339,-927.94704 c -4.4339,-0.7148 -10.4155,-3.04752 -13.8189,-5.38915 -2.5414,-1.74856 -6.178,-5.40171 -7.9981,-8.0346 -9.9089,-14.33364 -6.6663,-33.70797 7.3747,-44.06342 7.9106,-5.8341 18.9297,-7.6234 28.3924,-4.6101 18.1062,5.7656 27.227,26.05672 19.5249,43.43733 -3.8982,8.79665 -12.2536,15.69161 -21.9029,18.07441 -2.0377,0.50319 -9.6832,0.89004 -11.5721,0.58553 z m 4.1187,-14.8766 c 0.7413,-2.87545 0.7794,-2.94024 1.6027,-2.72469 1.4571,0.38148 5.7125,0.26278 7.0259,-0.19599 2.6243,-0.91666 4.5518,-3.62229 5.0214,-7.0484 0.2804,-2.04572 -0.3416,-3.59823 -2.0408,-5.09393 -1.4236,-1.25307 -1.4394,-1.28875 -0.6623,-1.48383 1.0285,-0.25812 2.5485,-1.87541 3.0425,-3.23699 0.5439,-1.49938 0.5248,-4.04917 -0.038,-5.13825 -0.6791,-1.31312 -2.6597,-2.95553 -4.6792,-3.88006 -0.9559,-0.43769 -1.7357,-0.89574 -1.7325,-1.0179 0.01,-0.1221 0.2959,-1.3299 0.6508,-2.68387 0.3548,-1.35399 0.6477,-2.55506 0.6508,-2.66896 0.01,-0.2179 -2.5833,-0.9416 -3.3684,-0.9416 -0.3034,0 -0.6618,0.8949 -1.0647,2.65884 l -0.6072,2.65891 -1.1283,-0.18308 c -0.6206,-0.10075 -1.2033,-0.2582 -1.2951,-0.34996 -0.092,-0.0919 0.1334,-1.36283 0.5005,-2.82451 l 0.6674,-2.6577 -0.753,-0.2863 c -0.4142,-0.1574 -1.2701,-0.3833 -1.9019,-0.5018 l -1.1489,-0.2155 -0.5857,2.4847 c -0.3222,1.36661 -0.6842,2.644 -0.8045,2.83865 -0.1499,0.24247 -1.2614,0.0896 -3.5297,-0.48536 -1.8209,-0.46161 -3.3713,-0.83928 -3.4453,-0.83928 -0.245,0 -0.9438,3.59505 -0.7573,3.89666 0.1006,0.1628 0.7384,0.39909 1.4174,0.52509 1.4441,0.26799 2.3833,1.00753 2.3833,1.87656 0,0.77486 -3.5027,14.92539 -3.9557,15.98073 -0.3141,0.73157 -0.4513,0.76641 -2.2283,0.56535 l -1.8936,-0.21424 -0.762,1.83858 c -0.4266,1.02926 -0.6355,1.95391 -0.4745,2.10062 0.1582,0.14414 1.3954,0.52397 2.7494,0.84406 1.3539,0.3201 2.7816,0.69981 3.1724,0.8438 l 0.7106,0.26178 -0.6229,2.39845 c -0.8313,3.2005 -0.8117,3.42971 0.3122,3.65449 0.5205,0.10412 1.3126,0.2812 1.7602,0.39352 0.7488,0.18796 0.845,0.0778 1.2046,-1.37912 1.076,-4.36008 0.9414,-4.1119 2.0976,-3.86847 0.5766,0.12139 1.153,0.31732 1.2811,0.43541 0.128,0.11803 -0.064,1.37487 -0.4276,2.79284 -0.3632,1.41797 -0.5685,2.67207 -0.4562,2.78689 0.1677,0.17141 2.3991,0.8775 3.1512,0.99711 0.1114,0.0176 0.5443,-1.29321 0.9619,-2.91325 z m 0.4766,-7.7666 c -0.361,-0.0729 -1.5101,-0.29835 -2.5534,-0.50114 -1.0433,-0.20284 -1.9698,-0.48665 -2.0589,-0.63071 -0.1253,-0.2028 1.4017,-7.09095 1.6483,-7.43538 0.1332,-0.18593 4.9521,1.30625 6.0848,1.88413 4.8733,2.48615 2.3941,7.79528 -3.1208,6.6831 z m 1.9695,-11.43342 c -0.1806,-0.0561 -1.1588,-0.27233 -2.1738,-0.48062 l -1.8456,-0.37871 0.8283,-3.35024 c 0.4556,-1.84263 0.8492,-3.38114 0.8749,-3.4189 0.026,-0.0376 0.9223,0.16004 1.9927,0.43957 3.6738,0.95935 5.0829,2.06468 5.0829,3.98726 0,0.68193 -0.2259,1.56242 -0.5021,1.95664 -0.6514,0.93008 -3.0307,1.62584 -4.2573,1.245 z"
       id="path2938"
       inkscape:connector-curvature="0" />
    <flowRoot
       xml:space="preserve"
       id="flowRoot3313"
       style="font-style:italic;font-variant:normal;font-weight:bold;font-stretch:normal;font-size:53.33333206px;line-height:1.25;font-family:FreeMono;-inkscape-font-specification:'FreeMono Bold Italic';letter-spacing:0px;word-spacing:0px;fill:#000000;fill-opacity:1;stroke:none"
       transform="matrix(1.3083448,0.23132229,-0.23132229,1.3083448,-333.09662,-791.3455)"><flowRegion
         id="flowRegion3315"
         style="font-style:italic;font-variant:normal;font-weight:bold;font-stretch:normal;font-size:53.33333206px;font-family:FreeMono;-inkscape-font-specification:'FreeMono Bold Italic';fill:#000000"><rect
           id="rect3317"
           width="216.37468"
           height="65.053825"
           x="514.77374"
           y="-84.992744"
           style="font-style:italic;font-variant:normal;font-weight:bold;font-stretch:normal;font-size:53.33333206px;font-family:FreeMono;-inkscape-font-specification:'FreeMono Bold Italic';fill:#000000" /></flowRegion><flowPara
         id="flowPara3319"
         style="font-style:italic;font-variant:normal;font-weight:bold;font-stretch:normal;font-family:FreeMono;-inkscape-font-specification:'FreeMono Bold Italic'">tUx</flowPara></flowRoot>    <path
       style="fill:#00ff00;stroke-width:1.47430801"
       d="m -372.67353,-836.90553 c -41.85708,-25.76056 -71.84318,-56.97607 -92.19762,-95.97776 -7.91468,-15.1655 -10.72043,-17.68285 -14.55658,-13.06046 -0.93634,1.12815 -4.57935,2.4826 -8.09543,3.00988 -4.13366,0.61988 -8.41564,2.68226 -12.11556,5.83534 -6.42002,5.47106 -11.20061,7.23174 -26.87892,9.89939 -8.45196,1.43809 -11.46009,1.45422 -13.67131,0.0733 -3.68022,-2.29833 -7.87059,-0.14301 -10.82339,5.56713 -4.38157,8.47301 -10.03516,35.83402 -10.32897,49.98781 -0.30041,14.47223 -0.77217,15.50215 -7.97751,17.41602 -4.91309,1.30501 -15.82583,-1.48932 -24.26987,-6.21458 -8.31143,-4.65104 -8.2083,-1.50929 -1.15378,-35.14899 5.50265,-26.2395 5.62736,-29.8821 1.24654,-36.40966 -2.64259,-3.93753 -4.81767,-5.29278 -10.16438,-6.33324 -6.42645,-1.25057 -7.4831,-0.95245 -19.12117,5.39476 -46.634,25.4334 -77.48718,43.05072 -85.31088,48.7129 -2.01958,1.46163 -13.29181,8.15296 -25.04942,14.86964 -22.09848,12.62404 -26.88356,15.45706 -49.51652,29.31633 -18.65766,11.42501 -19.69338,11.45657 -23.07018,0.70301 -5.09503,-16.22533 -19.2383,-66.91508 -19.88539,-71.2696 -0.58184,-3.91548 -0.0874,-4.79537 3.51109,-6.24903 2.30356,-0.93052 29.06724,-9.33341 59.47484,-18.67308 54.05376,-16.60255 55.58242,-16.97695 68.55532,-16.79032 l 13.26878,0.19088 28.749,-11.46643 c 15.81196,-6.30655 29.57831,-12.10846 30.59189,-12.89314 1.01359,-0.78468 1.84289,-2.69568 1.84289,-4.24667 0,-3.52353 4.19516,-10.09183 6.43537,-10.07576 0.92032,0.007 4.32708,-2.96275 7.57055,-6.59854 l 5.89724,-6.6105 24.32608,-4.4218 c 13.37934,-2.432 52.48706,-9.4123 86.90597,-15.5117 34.41905,-6.0994 63.01487,-11.5894 63.54651,-12.2 0.53164,-0.6106 1.82151,-4.2883 2.8665,-8.1727 2.29151,-8.5181 5.45494,-10.5567 14.46517,-9.3217 7.03658,0.9644 23.60117,-1.3026 29.77306,-4.0749 2.02717,-0.9105 7.58325,-1.6555 12.34674,-1.6555 7.12489,0 8.95524,0.523 10.32016,2.9487 0.91259,1.6217 1.80912,3.209 1.99223,3.5272 0.18311,0.3183 1.17827,-0.1181 2.21146,-0.9695 2.00948,-1.6561 7.81752,-2.8753 40.21043,-8.4405 11.35217,-1.9504 26.53239,-4.576 33.73365,-5.8347 14.37406,-2.5123 25.38743,-2.9591 26.55052,-1.0771 1.55244,2.5118 32.44376,-1.2197 66.03012,-7.976 3.06067,-0.6157 5.21183,0.3376 9.58301,4.2469 12.87041,11.5105 19.64073,12.3967 51.95741,6.801 13.31345,-2.3052 24.706459,-4.7096 25.317559,-5.343 2.65183,-2.7487 5.81997,-19.9136 4.92315,-26.6741 -1.1448,-8.6296 0.35251,-10.1969 10.37102,-10.856 8.33751,-0.5486 7.4628,-1.9466 12.1542,19.4238 l 2.7512,12.5316 h 4.77514 c 5.67948,0 7.59239,2.4903 7.62291,9.9235 0.0192,4.6465 -0.54962,5.6442 -3.66321,6.4257 -2.82434,0.7088 -3.68577,1.8817 -3.68577,5.0186 0,4.6664 -5.12086,8.8556 -10.82526,8.8556 -3.3511,0 -11.04581,-2.5994 -18.1244,-6.1227 -4.63641,-2.3076 -50.539869,5.591 -53.611589,9.2249 -1.21631,1.4389 -4.03592,2.9882 -6.26581,3.4428 -2.22989,0.4546 -5.74007,1.1777 -7.80042,1.6069 -2.15426,0.4488 -3.33326,1.4482 -2.77465,2.352 0.53429,0.8644 0.15923,3.0891 -0.83327,4.9437 -2.08055,3.8875 -12.06869,5.978 -16.20869,3.3926 -1.8507,-1.1558 -7.57043,-0.714 -21.54466,1.6641 -34.56766,5.8827 -36.45713,6.3952 -38.46219,10.4324 -2.19878,4.4268 -3.90455,4.9294 -32.9008,9.6929 -26.53489,4.3592 -35.1655,6.44349 -55.14827,13.31817 -13.33408,4.58731 -16.09207,5.02458 -31.69762,5.02546 -12.43108,7.2e-4 -23.61061,1.17332 -40.99122,4.29945 -13.1442,2.36416 -24.56684,4.71148 -25.38361,5.21627 -3.65097,2.25648 4.67887,21.36554 18.02386,41.34694 12.87263,19.27424 40.40223,43.01516 64.06149,55.24516 5.06793,2.61972 9.21443,4.94169 9.21443,5.15992 0,0.21823 -4.55488,10.09298 -10.12187,21.94389 -9.77186,20.80196 -12.78874,26.10444 -14.75325,25.93097 -0.50893,-0.045 -6.89623,-3.75646 -14.19405,-8.24784 z m -154.52825,-94.55461 c 2.17275,-1.3816 -10.28579,-21.43648 -13.79593,-22.20775 -2.01141,-0.44195 -2.1898,0.67921 -1.29027,8.10869 1.31414,10.85356 4.01127,15.26318 9.3175,15.23338 2.21119,-0.0118 4.80711,-0.52286 5.7687,-1.13432 z m 17.21754,-3.82453 c 7.11811,-2.97414 11.25737,-8.97246 11.25737,-16.31309 0,-3.38458 -0.82929,-7.23485 -1.84288,-8.55616 -1.6928,-2.20683 -2.6654,-2.21433 -11.94885,-0.0921 -9.21953,2.10754 -10.28819,2.74621 -12.18283,7.28068 -1.78575,4.27394 -1.78594,5.66662 -0.001,9.9379 1.14153,2.73206 3.62009,6.04926 5.5079,7.37154 4.11933,2.88528 3.27523,2.85125 9.21057,0.37133 z m 303.89603,-93.56513 c 19.16954,-3.2579 23.66854,-4.481 24.06557,-6.5425 0.29014,-1.5063 -0.42799,-2.5354 -1.76888,-2.5354 -5.29203,0 -45.99782,7.7109 -47.27472,8.9552 -0.77032,0.7507 -2.9265,1.3649 -4.7915,1.3649 -1.865,0 -3.39091,0.6635 -3.39091,1.4743 0,2.2621 7.46472,1.6506 33.16044,-2.7165 z m -0.17324,-22.9656 c 12.06147,-2.0241 22.24525,-3.9956 22.63078,-4.3811 0.38553,-0.3856 0.32671,-1.3068 -0.13121,-2.0471 -0.48299,-0.7815 -6.5735,-0.2638 -14.52208,1.2345 -7.52959,1.4192 -18.50021,3.3676 -24.37902,4.3297 -7.65475,1.2528 -10.68873,2.3674 -10.68873,3.9269 0,1.3883 0.9353,1.8948 2.58004,1.3975 1.41902,-0.4291 12.44847,-2.4363 24.50993,-4.4604 z m 124.954239,-30.7408 c -2.45457,-2.4546 -3.8447,-0.016 -1.56011,2.7367 1.38172,1.6649 2.1808,1.8637 2.58741,0.6438 0.32361,-0.9707 -0.13858,-2.492 -1.0273,-3.3805 z"
       id="path5523"
       inkscape:connector-curvature="0" />
  </g>
</svg>
